<svg width="741" height="474" viewBox="0 0 741 474" fill="none" xmlns="http://www.w3.org/2000/svg">
<path d="M111.511 129.423C112.746 116.117 116.159 103.105 121.611 90.9056C123.131 87.5107 124.804 84.1904 126.629 80.9449C126.721 80.7751 126.743 80.5765 126.691 80.3908C126.639 80.2051 126.517 80.047 126.35 79.9497C126.184 79.8524 125.986 79.8235 125.799 79.8692C125.611 79.9149 125.449 80.0316 125.346 80.1946C118.707 92.0156 114.055 104.847 111.578 118.177C110.889 121.899 110.371 125.648 110.024 129.423C109.936 130.375 111.423 130.369 111.511 129.423V129.423Z" fill="#E6E6E6"/>
<path d="M130.23 83.3288C135.429 83.3288 139.644 79.1138 139.644 73.9144C139.644 68.715 135.429 64.5 130.23 64.5C125.03 64.5 120.815 68.715 120.815 73.9144C120.815 79.1138 125.03 83.3288 130.23 83.3288Z" fill="#E6E6E6"/>
<path d="M112.474 129.673C113.275 121.041 115.489 112.599 119.027 104.685C120.012 102.482 121.098 100.328 122.282 98.2229C122.341 98.1128 122.356 97.984 122.322 97.8635C122.288 97.7431 122.209 97.6404 122.101 97.5773C121.993 97.5142 121.864 97.4954 121.743 97.5251C121.621 97.5547 121.516 97.6304 121.449 97.7362C117.142 105.405 114.125 113.73 112.518 122.377C112.07 124.792 111.734 127.224 111.51 129.673C111.452 130.291 112.417 130.287 112.474 129.673V129.673Z" fill="#E6E6E6"/>
<path d="M124.618 99.7696C127.991 99.7696 130.725 97.0351 130.725 93.662C130.725 90.2889 127.991 87.5544 124.618 87.5544C121.245 87.5544 118.51 90.2889 118.51 93.662C118.51 97.0351 121.245 99.7696 124.618 99.7696Z" fill="#E6E6E6"/>
<path d="M111.257 129.096C106.58 121.797 103.133 113.78 101.054 105.363C100.477 103.02 100.008 100.655 99.6467 98.266C99.6258 98.1426 99.5578 98.0322 99.4571 97.958C99.3563 97.8838 99.2307 97.8517 99.1067 97.8683C98.9827 97.885 98.87 97.9491 98.7924 98.0473C98.7148 98.1454 98.6783 98.2698 98.6907 98.3943C100.011 107.09 102.752 115.51 106.804 123.317C107.937 125.496 109.167 127.62 110.496 129.689C110.831 130.212 111.589 129.615 111.257 129.096Z" fill="#E6E6E6"/>
<path d="M98.6831 99.3407C102.056 99.3407 104.791 96.6063 104.791 93.2332C104.791 89.8601 102.056 87.1256 98.6831 87.1256C95.31 87.1256 92.5756 89.8601 92.5756 93.2332C92.5756 96.6063 95.31 99.3407 98.6831 99.3407Z" fill="#E6E6E6"/>
<path d="M92.507 134.5V122.5C92.5083 121.307 92.9829 120.163 93.8265 119.319C94.6701 118.476 95.8139 118.001 97.007 118H125.007C126.2 118.001 127.344 118.476 128.187 119.319C129.031 120.163 129.506 121.307 129.507 122.5V134.5C129.506 135.693 129.031 136.837 128.187 137.68C127.344 138.524 126.2 138.999 125.007 139H97.007C95.8139 138.999 94.6701 138.524 93.8265 137.68C92.9829 136.837 92.5083 135.693 92.507 134.5Z" fill="#F0DDC1"/>
<path d="M124.007 58H112.007C110.814 57.9987 109.67 57.5241 108.826 56.6805C107.983 55.8369 107.508 54.6931 107.507 53.5V4.5C107.508 3.30694 107.983 2.16313 108.826 1.3195C109.67 0.475881 110.814 0.00134456 112.007 0H124.007C125.2 0.00134456 126.344 0.475881 127.187 1.3195C128.031 2.16313 128.506 3.30694 128.507 4.5V53.5C128.506 54.6931 128.031 55.8369 127.187 56.6805C126.344 57.5241 125.2 57.9987 124.007 58Z" fill="#F0DDC1"/>
<path d="M128.007 9.5H108.007V13.5H128.007V9.5Z" fill="#CCCCCC"/>
<path d="M128.007 40.5H108.007V44.5H128.007V40.5Z" fill="#CCCCCC"/>
<path d="M154.007 58H142.007C140.814 57.9987 139.67 57.5241 138.826 56.6805C137.983 55.8369 137.508 54.6931 137.507 53.5V4.5C137.508 3.30694 137.983 2.16313 138.826 1.3195C139.67 0.475881 140.814 0.00134456 142.007 0H154.007C155.2 0.00134456 156.344 0.475881 157.187 1.3195C158.031 2.16313 158.506 3.30694 158.507 4.5V53.5C158.506 54.6931 158.031 55.8369 157.187 56.6805C156.344 57.5241 155.2 57.9987 154.007 58V58Z" fill="#F0DDC1"/>
<path d="M158.007 9.5H138.007V13.5H158.007V9.5Z" fill="#CCCCCC"/>
<path d="M158.007 40.5H138.007V44.5H158.007V40.5Z" fill="#CCCCCC"/>
<path d="M184.007 58H172.007C170.814 57.9987 169.67 57.5241 168.826 56.6805C167.983 55.8369 167.508 54.6931 167.507 53.5V4.5C167.508 3.30694 167.983 2.16313 168.826 1.3195C169.67 0.475881 170.814 0.00134456 172.007 0H184.007C185.2 0.00134456 186.344 0.475881 187.187 1.3195C188.031 2.16313 188.506 3.30694 188.507 4.5V53.5C188.506 54.6931 188.031 55.8369 187.187 56.6805C186.344 57.5241 185.2 57.9987 184.007 58V58Z" fill="#F0DDC1"/>
<path d="M188.007 9.5H168.007V13.5H188.007V9.5Z" fill="#CCCCCC"/>
<path d="M188.007 40.5H168.007V44.5H188.007V40.5Z" fill="#CCCCCC"/>
<path d="M200.007 139H188.007C186.814 138.999 185.67 138.524 184.826 137.68C183.983 136.837 183.508 135.693 183.507 134.5V85.5C183.508 84.3069 183.983 83.1631 184.826 82.3195C185.67 81.4759 186.814 81.0013 188.007 81H200.007C201.2 81.0013 202.344 81.4759 203.187 82.3195C204.031 83.1631 204.506 84.3069 204.507 85.5V134.5C204.506 135.693 204.031 136.837 203.187 137.68C202.344 138.524 201.2 138.999 200.007 139Z" fill="#F0DDC1"/>
<path d="M204.007 90.5H184.007V94.5H204.007V90.5Z" fill="#CCCCCC"/>
<path d="M204.007 121.5H184.007V125.5H204.007V121.5Z" fill="#CCCCCC"/>
<path d="M230.007 139H218.007C216.814 138.999 215.67 138.524 214.826 137.68C213.983 136.837 213.508 135.693 213.507 134.5V85.5C213.508 84.3069 213.983 83.1631 214.826 82.3195C215.67 81.4759 216.814 81.0013 218.007 81H230.007C231.2 81.0013 232.344 81.4759 233.187 82.3195C234.031 83.1631 234.506 84.3069 234.507 85.5V134.5C234.506 135.693 234.031 136.837 233.187 137.68C232.344 138.524 231.2 138.999 230.007 139Z" fill="#F0DDC1"/>
<path d="M234.007 90.5H214.007V94.5H234.007V90.5Z" fill="#CCCCCC"/>
<path d="M234.007 121.5H214.007V125.5H234.007V121.5Z" fill="#CCCCCC"/>
<path d="M260.007 139H248.007C246.814 138.999 245.67 138.524 244.826 137.68C243.983 136.837 243.508 135.693 243.507 134.5V85.5C243.508 84.3069 243.983 83.1631 244.826 82.3195C245.67 81.4759 246.814 81.0013 248.007 81H260.007C261.2 81.0013 262.344 81.4759 263.187 82.3195C264.031 83.1631 264.506 84.3069 264.507 85.5V134.5C264.506 135.693 264.031 136.837 263.187 137.68C262.344 138.524 261.2 138.999 260.007 139Z" fill="#F0DDC1"/>
<path d="M264.007 90.5H244.007V94.5H264.007V90.5Z" fill="#CCCCCC"/>
<path d="M264.007 121.5H244.007V125.5H264.007V121.5Z" fill="#CCCCCC"/>
<path d="M121.007 220H109.007C107.814 219.999 106.67 219.524 105.826 218.68C104.983 217.837 104.508 216.693 104.507 215.5V166.5C104.508 165.307 104.983 164.163 105.826 163.319C106.67 162.476 107.814 162.001 109.007 162H121.007C122.2 162.001 123.344 162.476 124.187 163.319C125.031 164.163 125.506 165.307 125.507 166.5V215.5C125.506 216.693 125.031 217.837 124.187 218.68C123.344 219.524 122.2 219.999 121.007 220V220Z" fill="#F0DDC1"/>
<path d="M125.007 171.5H105.007V175.5H125.007V171.5Z" fill="#CCCCCC"/>
<path d="M125.007 202.5H105.007V206.5H125.007V202.5Z" fill="#CCCCCC"/>
<path d="M151.007 220H139.007C137.814 219.999 136.67 219.524 135.826 218.68C134.983 217.837 134.508 216.693 134.507 215.5V166.5C134.508 165.307 134.983 164.163 135.826 163.319C136.67 162.476 137.814 162.001 139.007 162H151.007C152.2 162.001 153.344 162.476 154.187 163.319C155.031 164.163 155.506 165.307 155.507 166.5V215.5C155.506 216.693 155.031 217.837 154.187 218.68C153.344 219.524 152.2 219.999 151.007 220V220Z" fill="#F0DDC1"/>
<path d="M155.007 171.5H135.007V175.5H155.007V171.5Z" fill="#CCCCCC"/>
<path d="M155.007 202.5H135.007V206.5H155.007V202.5Z" fill="#CCCCCC"/>
<path d="M181.007 220H169.007C167.814 219.999 166.67 219.524 165.826 218.68C164.983 217.837 164.508 216.693 164.507 215.5V166.5C164.508 165.307 164.983 164.163 165.826 163.319C166.67 162.476 167.814 162.001 169.007 162H181.007C182.2 162.001 183.344 162.476 184.187 163.319C185.031 164.163 185.506 165.307 185.507 166.5V215.5C185.506 216.693 185.031 217.837 184.187 218.68C183.344 219.524 182.2 219.999 181.007 220V220Z" fill="#F0DDC1"/>
<path d="M185.007 171.5H165.007V175.5H185.007V171.5Z" fill="#CCCCCC"/>
<path d="M185.007 202.5H165.007V206.5H185.007V202.5Z" fill="#CCCCCC"/>
<path d="M214.007 58H202.007C200.814 57.9987 199.67 57.5241 198.826 56.6805C197.983 55.8369 197.508 54.6931 197.507 53.5V4.5C197.508 3.30694 197.983 2.16313 198.826 1.3195C199.67 0.475881 200.814 0.00134456 202.007 0H214.007C215.2 0.00134456 216.344 0.475881 217.187 1.3195C218.031 2.16313 218.506 3.30694 218.507 4.5V53.5C218.506 54.6931 218.031 55.8369 217.187 56.6805C216.344 57.5241 215.2 57.9987 214.007 58Z" fill="#F0DDC1"/>
<path d="M218.007 9.5H198.007V13.5H218.007V9.5Z" fill="#CCCCCC"/>
<path d="M218.007 40.5H198.007V44.5H218.007V40.5Z" fill="#CCCCCC"/>
<path d="M244.007 58H232.007C230.814 57.9987 229.67 57.5241 228.826 56.6805C227.983 55.8369 227.508 54.6931 227.507 53.5V4.5C227.508 3.30694 227.983 2.16313 228.826 1.3195C229.67 0.475881 230.814 0.00134456 232.007 0H244.007C245.2 0.00134456 246.344 0.475881 247.187 1.3195C248.031 2.16313 248.506 3.30694 248.507 4.5V53.5C248.506 54.6931 248.031 55.8369 247.187 56.6805C246.344 57.5241 245.2 57.9987 244.007 58V58Z" fill="#F0DDC1"/>
<path d="M248.007 9.5H228.007V13.5H248.007V9.5Z" fill="#CCCCCC"/>
<path d="M248.007 40.5H228.007V44.5H248.007V40.5Z" fill="#CCCCCC"/>
<path d="M274.007 58H262.007C260.814 57.9987 259.67 57.5241 258.826 56.6805C257.983 55.8369 257.508 54.6931 257.507 53.5V4.5C257.508 3.30694 257.983 2.16313 258.826 1.3195C259.67 0.475881 260.814 0.00134456 262.007 0H274.007C275.2 0.00134456 276.344 0.475881 277.187 1.3195C278.031 2.16313 278.506 3.30694 278.507 4.5V53.5C278.506 54.6931 278.031 55.8369 277.187 56.6805C276.344 57.5241 275.2 57.9987 274.007 58Z" fill="#F0DDC1"/>
<path d="M278.007 9.5H258.007V13.5H278.007V9.5Z" fill="#CCCCCC"/>
<path d="M278.007 40.5H258.007V44.5H278.007V40.5Z" fill="#CCCCCC"/>
<path d="M304.007 58H292.007C290.814 57.9987 289.67 57.5241 288.826 56.6805C287.983 55.8369 287.508 54.6931 287.507 53.5V4.5C287.508 3.30694 287.983 2.16313 288.826 1.3195C289.67 0.475881 290.814 0.00134456 292.007 0H304.007C305.2 0.00134456 306.344 0.475881 307.187 1.3195C308.031 2.16313 308.506 3.30694 308.507 4.5V53.5C308.506 54.6931 308.031 55.8369 307.187 56.6805C306.344 57.5241 305.2 57.9987 304.007 58Z" fill="#F0DDC1"/>
<path d="M308.007 9.5H288.007V13.5H308.007V9.5Z" fill="#CCCCCC"/>
<path d="M308.007 40.5H288.007V44.5H308.007V40.5Z" fill="#CCCCCC"/>
<path d="M348.948 59.5H63.9479C63.6827 59.5 63.4283 59.3946 63.2408 59.2071C63.0532 59.0196 62.9479 58.7652 62.9479 58.5C62.9479 58.2348 63.0532 57.9804 63.2408 57.7929C63.4283 57.6053 63.6827 57.5 63.9479 57.5H348.948C349.213 57.5 349.467 57.6053 349.655 57.7929C349.843 57.9804 349.948 58.2348 349.948 58.5C349.948 58.7652 349.843 59.0196 349.655 59.2071C349.467 59.3946 349.213 59.5 348.948 59.5Z" fill="#CCCCCC"/>
<path d="M348.948 140.5H63.9479C63.6827 140.5 63.4283 140.395 63.2408 140.207C63.0532 140.02 62.9479 139.765 62.9479 139.5C62.9479 139.235 63.0532 138.98 63.2408 138.793C63.4283 138.605 63.6827 138.5 63.9479 138.5H348.948C349.213 138.5 349.467 138.605 349.655 138.793C349.843 138.98 349.948 139.235 349.948 139.5C349.948 139.765 349.843 140.02 349.655 140.207C349.467 140.395 349.213 140.5 348.948 140.5Z" fill="#CCCCCC"/>
<path d="M348.948 221.5H63.9479C63.6827 221.5 63.4283 221.395 63.2408 221.207C63.0532 221.02 62.9479 220.765 62.9479 220.5C62.9479 220.235 63.0532 219.98 63.2408 219.793C63.4283 219.605 63.6827 219.5 63.9479 219.5H348.948C349.213 219.5 349.467 219.605 349.655 219.793C349.843 219.98 349.948 220.235 349.948 220.5C349.948 220.765 349.843 221.02 349.655 221.207C349.467 221.395 349.213 221.5 348.948 221.5Z" fill="#CCCCCC"/>
<path d="M332.07 378.482C332.07 370.75 302.968 364.482 267.07 364.482C231.172 364.482 202.07 370.75 202.07 378.482C202.07 383.438 214.034 387.789 232.07 390.277V466.982C232.07 468.706 232.755 470.36 233.974 471.578C235.193 472.797 236.846 473.482 238.57 473.482C240.294 473.482 241.947 472.797 243.166 471.578C244.385 470.36 245.07 468.706 245.07 466.982V391.658C251.942 392.191 259.347 392.482 267.07 392.482C274.793 392.482 282.198 392.191 289.07 391.658V466.982C289.07 468.706 289.755 470.36 290.974 471.578C292.193 472.797 293.846 473.482 295.57 473.482C297.294 473.482 298.947 472.797 300.166 471.578C301.385 470.36 302.07 468.706 302.07 466.982V390.277C320.106 387.789 332.07 383.438 332.07 378.482Z" fill="#CCCCCC"/>
<path d="M319.563 460.906H331.823L337.655 413.618H319.561L319.563 460.906Z" fill="#A0616A"/>
<path d="M355.467 472.289L316.936 472.29L316.936 457.403L340.58 457.402C344.528 457.402 348.314 458.97 351.106 461.762C353.898 464.554 355.467 468.34 355.467 472.289V472.289L355.467 472.289Z" fill="#2F2E41"/>
<path d="M338.701 454.064L350.398 450.393L341.806 403.528L324.542 408.945L338.701 454.064Z" fill="#A0616A"/>
<path d="M376.366 454.175L339.603 465.712L335.145 451.508L357.704 444.429C361.472 443.246 365.554 443.609 369.054 445.437C372.553 447.265 375.184 450.408 376.366 454.175V454.175Z" fill="#2F2E41"/>
<path d="M330.499 432.299L308.072 373.428C303.04 374.609 260.845 383.946 246.713 368.899C241.869 363.742 240.925 356.27 243.905 346.691L252.153 336.327L252.409 336.341C255.527 336.505 328.844 340.614 333.87 362.729C338.108 381.374 345.847 416.135 348.118 426.345C348.348 427.402 348.19 428.508 347.674 429.459C347.157 430.411 346.316 431.145 345.303 431.528L336.284 434.91C335.782 435.099 335.249 435.196 334.712 435.196C333.799 435.196 332.908 434.919 332.156 434.402C331.403 433.884 330.826 433.151 330.499 432.299Z" fill="#2F2E41"/>
<path d="M317.499 439.299L295.072 380.428C290.04 381.609 247.845 390.945 233.713 375.899C228.869 370.742 227.925 363.27 230.905 353.691L239.153 343.327L239.409 343.341C242.527 343.505 315.844 347.614 320.87 369.729C325.108 388.374 332.847 423.135 335.118 433.345C335.348 434.402 335.19 435.508 334.674 436.459C334.157 437.411 333.316 438.145 332.303 438.528L323.284 441.91C322.782 442.099 322.249 442.196 321.712 442.196C320.799 442.196 319.908 441.919 319.156 441.402C318.403 440.884 317.826 440.151 317.499 439.299Z" fill="#2F2E41"/>
<path d="M347.807 298.176C347.476 298.619 347.18 299.088 346.922 299.578L297.602 304.774L290.502 295.04L274.411 303.834L288.356 327.456L348.843 312.033C350.369 313.521 352.312 314.509 354.413 314.866C356.515 315.222 358.675 314.931 360.606 314.03C362.538 313.129 364.149 311.662 365.227 309.823C366.304 307.984 366.796 305.86 366.637 303.735C366.478 301.61 365.676 299.583 364.337 297.925C362.998 296.266 361.186 295.055 359.142 294.452C357.098 293.848 354.918 293.881 352.894 294.547C350.869 295.212 349.095 296.478 347.807 298.176V298.176Z" fill="#A0616A"/>
<path d="M230.588 356.8C229.913 356.313 229.386 355.65 229.065 354.882C228.744 354.115 228.642 353.273 228.769 352.451C231.552 334.108 228.35 307.832 225.175 289.018C224.524 285.201 224.777 281.285 225.913 277.583C227.049 273.881 229.036 270.497 231.715 267.701C234.394 264.905 237.69 262.775 241.34 261.483C244.99 260.19 248.892 259.77 252.734 260.257C256.076 260.698 259.387 261.351 262.647 262.211C268.061 263.574 272.851 266.74 276.228 271.186C279.605 275.633 281.369 281.097 281.229 286.679C280.754 304.833 284.44 327.484 286.047 336.38C286.157 336.991 286.139 337.618 285.996 338.222C285.852 338.826 285.586 339.394 285.213 339.891C284.848 340.382 284.384 340.791 283.851 341.093C283.318 341.394 282.727 341.581 282.118 341.641C264.31 343.458 245.106 352.142 235.243 357.157C234.61 357.484 233.907 357.656 233.194 357.658C232.256 357.655 231.344 357.354 230.588 356.8V356.8Z" fill="#CC3232"/>
<path d="M278.659 309.488C278.108 309.272 277.606 308.949 277.182 308.537C276.757 308.126 276.418 307.634 276.185 307.091L266.254 284.148C265.652 282.762 265.33 281.271 265.305 279.76C265.28 278.25 265.554 276.749 266.109 275.344C266.665 273.938 267.492 272.657 268.543 271.571C269.594 270.486 270.849 269.618 272.236 269.018C273.622 268.418 275.114 268.097 276.624 268.073C278.135 268.05 279.636 268.324 281.04 268.881C282.445 269.438 283.726 270.266 284.811 271.318C285.895 272.37 286.762 273.625 287.361 275.013L297.292 297.955C297.765 299.05 297.784 300.288 297.345 301.398C296.906 302.507 296.045 303.397 294.95 303.872L282.103 309.433C281.561 309.67 280.977 309.797 280.386 309.806C279.795 309.815 279.208 309.707 278.659 309.488H278.659Z" fill="#CC3232"/>
<path d="M300.807 296.176C300.476 296.619 300.18 297.088 299.922 297.578L250.602 302.774L243.502 293.04L227.411 301.834L241.356 325.456L301.843 310.033C303.369 311.521 305.312 312.509 307.413 312.866C309.515 313.222 311.675 312.931 313.606 312.03C315.538 311.129 317.149 309.662 318.227 307.823C319.304 305.984 319.796 303.86 319.637 301.735C319.478 299.61 318.676 297.583 317.337 295.925C315.998 294.266 314.186 293.055 312.142 292.452C310.098 291.848 307.918 291.881 305.894 292.547C303.869 293.212 302.095 294.478 300.807 296.176V296.176Z" fill="#A0616A"/>
<path d="M231.659 310.488C231.108 310.272 230.606 309.949 230.182 309.537C229.757 309.126 229.418 308.634 229.185 308.091L219.254 285.148C218.652 283.762 218.33 282.271 218.305 280.76C218.28 279.25 218.554 277.749 219.109 276.344C219.665 274.938 220.492 273.657 221.543 272.571C222.594 271.486 223.849 270.618 225.236 270.018C226.622 269.418 228.114 269.097 229.624 269.073C231.135 269.05 232.636 269.324 234.04 269.881C235.445 270.438 236.726 271.266 237.811 272.318C238.895 273.37 239.762 274.625 240.361 276.013L250.293 298.955C250.765 300.05 250.784 301.288 250.345 302.398C249.906 303.507 249.045 304.397 247.95 304.872L235.103 310.433C234.561 310.67 233.977 310.797 233.386 310.806C232.795 310.815 232.208 310.707 231.659 310.488H231.659Z" fill="#CC3232"/>
<path d="M250.906 252.452C264.471 252.452 275.467 241.456 275.467 227.891C275.467 214.326 264.471 203.33 250.906 203.33C237.342 203.33 226.345 214.326 226.345 227.891C226.345 241.456 237.342 252.452 250.906 252.452Z" fill="#A0616A"/>
<path d="M233.346 244.748C233.24 244.439 233.207 244.111 233.248 243.788C233.289 243.465 233.404 243.155 233.583 242.883C233.762 242.611 234.001 242.383 234.282 242.218C234.562 242.053 234.877 241.954 235.202 241.929C235.867 241.965 236.518 242.135 237.116 242.43C237.713 242.725 238.245 243.138 238.678 243.644C239.567 244.668 240.602 245.557 241.749 246.281C242.937 246.88 244.549 246.794 245.226 245.652C245.862 244.58 245.426 243.144 245.041 241.899C244.062 238.73 243.513 235.444 243.411 232.129C243.301 228.429 243.823 224.567 245.871 221.681C248.515 217.956 253.243 216.542 257.717 216.645C262.191 216.747 266.592 218.128 271.024 219.001C272.554 219.303 274.352 219.457 275.375 218.271C276.463 217.01 276.064 214.97 275.601 213.267C274.4 208.85 273.126 204.283 270.336 200.715C267.319 197.008 263.009 194.582 258.275 193.925C253.73 193.362 249.116 193.886 244.812 195.453C237.801 197.663 231.632 201.961 227.13 207.772C222.488 213.952 220.483 221.718 221.552 229.372C222.596 236.039 226.128 242.062 231.437 246.227L233.346 244.748Z" fill="#2F2E41"/>
<path d="M139.566 303.876C140.802 290.571 144.214 277.559 149.667 265.359C151.186 261.964 152.859 258.644 154.685 255.398C154.776 255.229 154.798 255.03 154.746 254.844C154.694 254.659 154.572 254.5 154.405 254.403C154.239 254.306 154.041 254.277 153.854 254.323C153.666 254.368 153.504 254.485 153.401 254.648C146.762 266.469 142.111 279.301 139.633 292.63C138.944 296.353 138.426 300.101 138.08 303.876C137.991 304.828 139.478 304.822 139.566 303.876V303.876Z" fill="#3F3D56"/>
<path d="M158.285 257.782C163.484 257.782 167.699 253.567 167.699 248.368C167.699 243.169 163.484 238.954 158.285 238.954C153.086 238.954 148.871 243.169 148.871 248.368C148.871 253.567 153.086 257.782 158.285 257.782Z" fill="#CC3232"/>
<path d="M140.529 304.126C141.331 295.494 143.544 287.053 147.082 279.138C148.068 276.936 149.153 274.782 150.337 272.676C150.397 272.566 150.411 272.437 150.377 272.317C150.343 272.197 150.264 272.094 150.156 272.031C150.048 271.968 149.92 271.949 149.798 271.979C149.677 272.008 149.571 272.084 149.505 272.19C145.197 279.858 142.18 288.183 140.573 296.831C140.126 299.245 139.79 301.677 139.565 304.126C139.508 304.744 140.472 304.74 140.529 304.126V304.126Z" fill="#3F3D56"/>
<path d="M152.673 274.223C156.046 274.223 158.78 271.489 158.78 268.116C158.78 264.742 156.046 262.008 152.673 262.008C149.3 262.008 146.565 264.742 146.565 268.116C146.565 271.489 149.3 274.223 152.673 274.223Z" fill="#CC3232"/>
<path d="M139.312 303.55C134.635 296.251 131.188 288.233 129.109 279.817C128.532 277.474 128.063 275.108 127.702 272.72C127.681 272.596 127.613 272.486 127.512 272.412C127.411 272.337 127.286 272.305 127.162 272.322C127.038 272.339 126.925 272.403 126.848 272.501C126.77 272.599 126.734 272.723 126.746 272.848C128.067 281.544 130.807 289.964 134.859 297.77C135.992 299.949 137.223 302.074 138.551 304.143C138.886 304.665 139.645 304.069 139.312 303.55Z" fill="#3F3D56"/>
<path d="M126.738 273.794C130.111 273.794 132.846 271.06 132.846 267.687C132.846 264.314 130.111 261.579 126.738 261.579C123.365 261.579 120.631 264.314 120.631 267.687C120.631 271.06 123.365 273.794 126.738 273.794Z" fill="#CC3232"/>
<path d="M120.562 308.954V296.954C120.563 295.761 121.038 294.617 121.882 293.773C122.725 292.929 123.869 292.455 125.062 292.454H153.062C154.255 292.455 155.399 292.929 156.243 293.773C157.086 294.617 157.561 295.761 157.562 296.954V308.954C157.561 310.147 157.086 311.291 156.243 312.134C155.399 312.978 154.255 313.452 153.062 313.454H125.062C123.869 313.452 122.725 312.978 121.882 312.134C121.038 311.291 120.563 310.147 120.562 308.954Z" fill="#CCCCCC"/>
<path d="M371.57 305.482H292.57C290.637 305.482 289.07 307.049 289.07 308.982C289.07 310.915 290.637 312.482 292.57 312.482H371.57C373.503 312.482 375.07 310.915 375.07 308.982C375.07 307.049 373.503 305.482 371.57 305.482Z" fill="#CCCCCC"/>
<path d="M424.57 312.482H335.57C333.847 312.48 332.194 311.795 330.976 310.576C329.757 309.358 329.072 307.706 329.07 305.982V256.982C329.072 255.259 329.757 253.607 330.976 252.388C332.194 251.17 333.847 250.484 335.57 250.482H424.57C426.293 250.484 427.945 251.17 429.164 252.388C430.383 253.607 431.068 255.259 431.07 256.982V305.982C431.068 307.706 430.383 309.358 429.164 310.576C427.945 311.795 426.293 312.48 424.57 312.482V312.482Z" fill="#CCCCCC"/>
<path d="M380.07 287.482C383.384 287.482 386.07 284.796 386.07 281.482C386.07 278.169 383.384 275.482 380.07 275.482C376.756 275.482 374.07 278.169 374.07 281.482C374.07 284.796 376.756 287.482 380.07 287.482Z" fill="white"/>
<path d="M651.07 378.482C651.07 370.75 621.969 364.482 586.07 364.482C550.172 364.482 521.07 370.75 521.07 378.482C521.07 383.438 533.034 387.789 551.07 390.277V466.982C551.07 468.706 551.755 470.36 552.974 471.578C554.193 472.797 555.846 473.482 557.57 473.482C559.294 473.482 560.947 472.797 562.166 471.578C563.385 470.36 564.07 468.706 564.07 466.982V391.658C570.942 392.191 578.347 392.482 586.07 392.482C593.793 392.482 601.198 392.191 608.07 391.658V466.982C608.07 468.706 608.755 470.36 609.974 471.578C611.193 472.797 612.846 473.482 614.57 473.482C616.294 473.482 617.947 472.797 619.166 471.578C620.385 470.36 621.07 468.706 621.07 466.982V390.277C639.106 387.789 651.07 383.438 651.07 378.482Z" fill="#CCCCCC"/>
<path d="M593.257 250.34C608.721 250.34 621.257 237.804 621.257 222.34C621.257 206.876 608.721 194.34 593.257 194.34C577.793 194.34 565.257 206.876 565.257 222.34C565.257 237.804 577.793 250.34 593.257 250.34Z" fill="#2F2E41"/>
<path d="M523.577 461.906H511.317L505.485 414.618H523.579L523.577 461.906Z" fill="#FFB8B8"/>
<path d="M502.56 458.403H526.204V473.289H487.673C487.673 471.334 488.058 469.399 488.806 467.592C489.554 465.786 490.651 464.145 492.033 462.763C493.416 461.38 495.057 460.284 496.863 459.536C498.669 458.788 500.605 458.403 502.56 458.403V458.403Z" fill="#2F2E41"/>
<path d="M504.439 455.064L492.742 451.393L501.334 404.528L518.598 409.945L504.439 455.064Z" fill="#FFB8B8"/>
<path d="M485.436 445.429L507.995 452.508L503.537 466.712L466.774 455.175C467.36 453.31 468.307 451.578 469.561 450.079C470.816 448.579 472.353 447.342 474.086 446.437C475.819 445.532 477.713 444.977 479.661 444.804C481.608 444.631 483.57 444.843 485.436 445.429V445.429Z" fill="#2F2E41"/>
<path d="M508.428 436.196C507.891 436.196 507.358 436.099 506.856 435.91L497.836 432.528C496.824 432.145 495.983 431.411 495.466 430.459C494.95 429.508 494.792 428.402 495.022 427.345C497.293 417.135 505.032 382.374 509.27 363.729C514.296 341.614 587.613 337.505 590.731 337.341L590.987 337.327L599.235 347.691C602.215 357.27 601.271 364.742 596.427 369.899C582.295 384.946 540.1 375.609 535.068 374.428L512.641 433.299C512.314 434.151 511.737 434.884 510.984 435.402C510.232 435.919 509.341 436.196 508.428 436.196V436.196Z" fill="#2F2E41"/>
<path d="M521.428 443.196C520.891 443.196 520.358 443.099 519.856 442.91L510.836 439.528C509.824 439.145 508.983 438.411 508.466 437.459C507.95 436.508 507.792 435.402 508.022 434.345C510.293 424.135 518.032 389.374 522.27 370.729C527.296 348.614 600.613 344.505 603.731 344.341L603.987 344.327L612.235 354.691C615.215 364.27 614.271 371.742 609.427 376.899C595.295 391.945 553.1 382.609 548.068 381.428L525.641 440.299C525.314 441.151 524.737 441.884 523.984 442.402C523.232 442.919 522.341 443.196 521.428 443.196V443.196Z" fill="#2F2E41"/>
<path d="M495.333 299.176C495.664 299.619 495.96 300.088 496.218 300.578L545.538 305.774L552.638 296.04L568.728 304.834L554.784 328.456L494.297 313.033C492.771 314.521 490.828 315.509 488.726 315.866C486.625 316.222 484.465 315.931 482.534 315.03C480.602 314.129 478.99 312.662 477.913 310.823C476.836 308.984 476.344 306.86 476.503 304.735C476.662 302.61 477.464 300.583 478.803 298.925C480.142 297.266 481.954 296.055 483.998 295.452C486.042 294.848 488.221 294.881 490.246 295.547C492.271 296.212 494.045 297.478 495.333 299.176V299.176Z" fill="#FFB8B8"/>
<path d="M609.946 358.658C609.233 358.656 608.53 358.484 607.896 358.157C598.034 353.142 578.83 344.458 561.022 342.641C560.413 342.581 559.822 342.394 559.289 342.093C558.756 341.791 558.292 341.382 557.927 340.891C557.554 340.394 557.287 339.826 557.144 339.222C557.001 338.618 556.983 337.991 557.093 337.38C558.7 328.484 562.386 305.833 561.911 287.679C561.771 282.097 563.535 276.633 566.912 272.186C570.289 267.74 575.078 264.574 580.493 263.211V263.211C583.753 262.351 587.064 261.698 590.406 261.257C594.247 260.77 598.149 261.19 601.8 262.483C605.45 263.775 608.746 265.905 611.425 268.701C614.104 271.497 616.091 274.881 617.227 278.583C618.362 282.285 618.615 286.201 617.965 290.018C614.79 308.832 611.588 335.108 614.371 353.451C614.498 354.273 614.396 355.115 614.075 355.882C613.754 356.65 613.227 357.313 612.552 357.8C611.796 358.355 610.884 358.655 609.946 358.658V358.658Z" fill="#CC3232"/>
<path d="M562.824 310.807C562.209 310.806 561.601 310.679 561.037 310.434L548.189 304.872C547.095 304.397 546.234 303.507 545.795 302.398C545.356 301.289 545.375 300.05 545.847 298.955L555.779 276.013C556.378 274.626 557.245 273.37 558.329 272.318C559.414 271.266 560.695 270.438 562.099 269.881C563.504 269.324 565.005 269.05 566.516 269.073C568.026 269.097 569.518 269.418 570.904 270.018C572.291 270.618 573.546 271.486 574.597 272.571C575.648 273.657 576.475 274.939 577.031 276.344C577.586 277.749 577.859 279.25 577.835 280.76C577.81 282.271 577.488 283.762 576.886 285.148L566.955 308.091C566.605 308.896 566.028 309.583 565.295 310.065C564.561 310.547 563.702 310.805 562.824 310.807V310.807Z" fill="#CC3232"/>
<path d="M592.234 253.452C605.799 253.452 616.795 242.456 616.795 228.891C616.795 215.326 605.799 204.33 592.234 204.33C578.669 204.33 567.673 215.326 567.673 228.891C567.673 242.456 578.669 253.452 592.234 253.452Z" fill="#FFB8B8"/>
<path d="M567.231 216.824C578.865 223.926 591.98 228.247 605.557 229.452L601.517 224.612C604.459 225.699 607.554 226.314 610.688 226.433C613.818 226.384 617.098 225.179 618.874 222.601C619.667 221.32 620.137 219.865 620.246 218.363C620.355 216.86 620.099 215.353 619.499 213.971C618.268 211.214 616.352 208.818 613.933 207.011C609.645 203.619 604.585 201.341 599.203 200.379C593.822 199.417 588.286 199.802 583.089 201.499C579.524 202.564 576.331 204.612 573.876 207.408C571.548 210.28 567.065 212.84 568.257 216.34L567.231 216.824Z" fill="#2F2E41"/>
<path d="M596.363 197.003C588.617 189.147 579.243 183.085 568.9 179.244C562.262 176.784 555.036 175.265 548.095 176.661C541.155 178.058 534.591 182.86 532.655 189.669C531.072 195.238 532.707 201.233 535.164 206.475C537.621 211.717 540.901 216.577 542.888 222.015C544.916 227.563 545.525 233.529 544.662 239.373C543.799 245.216 541.49 250.751 537.944 255.476C534.399 260.201 529.73 263.965 524.361 266.428C518.992 268.89 513.093 269.973 507.199 269.577C514.019 270.491 520.304 273.696 526.97 275.402C533.636 277.108 541.503 276.992 546.456 272.217C551.697 267.164 551.802 258.949 551.549 251.674L550.419 219.229C550.227 213.714 550.063 208.021 552.052 202.874C554.041 197.726 558.768 193.218 564.286 193.265C568.469 193.3 572.171 195.834 575.525 198.333C578.879 200.831 582.429 203.497 586.596 203.869C590.762 204.241 595.518 201.158 595.207 196.987" fill="#2F2E41"/>
<path d="M482.197 281.087L538.75 282.422L546.943 342.878L494.716 344.05L482.197 281.087Z" fill="#E6E6E6"/>
<path d="M542.333 297.176C542.664 297.619 542.96 298.088 543.218 298.578L592.538 303.774L599.638 294.04L615.728 302.834L601.784 326.456L541.297 311.033C539.771 312.521 537.828 313.509 535.726 313.866C533.625 314.222 531.465 313.931 529.534 313.03C527.602 312.129 525.99 310.662 524.913 308.823C523.836 306.984 523.344 304.86 523.503 302.735C523.662 300.61 524.464 298.583 525.803 296.925C527.142 295.266 528.954 294.055 530.998 293.452C533.042 292.848 535.221 292.881 537.246 293.547C539.271 294.212 541.045 295.478 542.333 297.176V297.176Z" fill="#FFB8B8"/>
<path d="M609.824 311.807C609.209 311.806 608.601 311.679 608.037 311.434L595.189 305.872C594.095 305.397 593.234 304.507 592.795 303.398C592.356 302.289 592.375 301.05 592.847 299.955L602.779 277.013C603.378 275.626 604.245 274.37 605.329 273.318C606.414 272.266 607.695 271.438 609.099 270.881C610.504 270.324 612.005 270.05 613.516 270.073C615.026 270.097 616.518 270.418 617.904 271.018C619.291 271.618 620.546 272.486 621.597 273.571C622.648 274.657 623.475 275.939 624.031 277.344C624.586 278.749 624.859 280.25 624.835 281.76C624.81 283.271 624.488 284.762 623.886 286.148L613.955 309.091C613.605 309.896 613.028 310.583 612.295 311.065C611.561 311.547 610.702 311.805 609.824 311.807V311.807Z" fill="#CC3232"/>
<path d="M493.57 311.482H95.5699C93.846 311.482 92.1927 312.167 90.9738 313.386C89.7548 314.605 89.0699 316.258 89.0699 317.982C89.0699 319.706 89.7548 321.36 90.9738 322.578C92.1927 323.797 93.846 324.482 95.5699 324.482H107.07V465.982C107.07 467.706 107.755 469.36 108.974 470.578C110.193 471.797 111.846 472.482 113.57 472.482C115.294 472.482 116.947 471.797 118.166 470.578C119.385 469.36 120.07 467.706 120.07 465.982V336.972L192.941 469.05C193.805 470.539 195.224 471.625 196.888 472.069C198.551 472.513 200.323 472.279 201.814 471.418C203.305 470.557 204.393 469.14 204.841 467.478C205.288 465.815 205.057 464.043 204.199 462.55L128.024 324.482H476.07V324.566L399.941 462.55C399.079 464.043 398.846 465.817 399.292 467.482C399.738 469.147 400.827 470.567 402.32 471.429C403.813 472.291 405.587 472.525 407.252 472.079C408.917 471.632 410.337 470.543 411.199 469.05L476.07 351.472V465.982C476.07 467.706 476.755 469.36 477.974 470.578C479.193 471.797 480.846 472.482 482.57 472.482C484.294 472.482 485.947 471.797 487.166 470.578C488.385 469.36 489.07 467.706 489.07 465.982V327.91L490.961 324.482H493.57C495.294 324.482 496.947 323.797 498.166 322.578C499.385 321.36 500.07 319.706 500.07 317.982C500.07 316.258 499.385 314.605 498.166 313.386C496.947 312.167 495.294 311.482 493.57 311.482V311.482Z" fill="#3F3D56"/>
<path d="M739.485 473.949H1.19066C0.875467 473.948 0.573504 473.822 0.350952 473.599C0.1284 473.375 0.00341797 473.073 0.00341797 472.758C0.00341797 472.443 0.1284 472.14 0.350952 471.917C0.573504 471.694 0.875467 471.568 1.19066 471.567H739.485C739.8 471.567 740.103 471.693 740.327 471.916C740.55 472.139 740.675 472.442 740.675 472.758C740.675 473.074 740.55 473.376 740.327 473.6C740.103 473.823 739.8 473.949 739.485 473.949V473.949Z" fill="#3F3D56"/>
</svg>
