<svg width="661" height="98" viewBox="0 0 661 98" fill="none" xmlns="http://www.w3.org/2000/svg">
<path d="M0 47.7185H0.781192C1.07879 47.0583 2.0311 46.1573 3.45956 47.835H5.13355V50.6311H14.9542V57.7379H10.7135L9.8207 60.068H14.9542L13.1687 63.9126H8.81631L7.92352 67.1748H13.1687L11.6063 70.9029H7.58872V73.1165L28.1229 78.2427H30.9129H39.8408V71.6019H38.2784V66.7087H39.8408V59.835H38.2784V55.1748H43.7467L47.6527 61.8155L51.5587 55.1748H57.2502V59.835H55.6878V66.7087H57.2502V71.6019H55.7994V78.2427H53.4558V71.6019H50.3311V66.7087H51.5587V62.5146L47.8759 69.0388L43.9699 62.5146V66.7087H45.4207V71.6019H42.0728V78.2427H67.6289L88.8327 73.233V70.9029H84.3687L82.6947 66.9417H87.7167L86.7123 63.9126H82.4715L81.1324 60.1845H85.8195L84.9267 57.6214H80.7976V50.6311H90.7299V47.835H92.2922C92.8874 47.2525 94.7474 46.4369 97.4258 47.835H98.6534V53.4272H99.5462V54.4757H98.6534V61.5825H99.5462V62.9806H98.6534V69.7379H99.5462V70.9029H98.6534V77.4272H99.5462V78.8252H98.6534V85.8155H99.5462V86.9806H98.6534V96.534H101.778V17.3107H102.559V15.6796H105.461V13.699H107.246V1H109.032V13.699H113.05V15.6796H120.08V12.4175H129.901V15.6796H134.588V17.4272H135.704V74.7476L136.485 74.2816V73.3495L137.043 73.1165V72.301L137.601 71.835V71.1359L138.271 70.7864V69.9709L138.941 69.1553L139.387 69.8544V70.7864L140.057 71.0194V71.835L140.503 72.301V73.1165L141.173 73.233H141.619V71.1359H142.177V75.4466H144.297V54.1262L146.306 51.7961L146.864 48.4175L147.31 51.7961L149.431 54.1262V63.0971L157.689 58.6699L166.171 63.0971V54.1262L168.068 51.7961L168.514 48.4175L169.072 51.7961L170.969 54.1262V97H172.309V88.1456L172.867 87.0971V70.9029L173.425 68.6893V57.5049L173.983 56.2233V43.6408L174.541 42.8252V40.8447H175.768V42.8252L176.438 43.6408V45.5049L177.331 45.8544V46.9029H178.558V45.8544H179.116V46.9029H180.232V45.9709H180.679V46.9029H181.906V45.8544L182.576 45.5049V43.6408L183.245 42.7087V40.8447H184.361V42.8252L184.919 43.6408V56.2233L185.812 57.5049L193.178 50.9806L200.32 57.5049L201.213 56.2233V43.6408L201.882 42.8252V40.8447H203.11V42.8252L203.779 43.6408V45.5049H204.449V46.9029H205.565V45.9709H206.235V46.9029H207.239V45.9709H207.909V46.9029H209.025V45.8544L209.806 45.5049V43.6408L210.475 42.8252V40.8447H211.48V42.8252L212.373 43.6408V56.2233L213.042 57.5049V68.6893L213.6 70.9029L213.823 86.9806L214.493 88.1456H215.051V59.1359H216.502L222.193 52.1456L227.438 58.9029H234.023V49.1165H244.736V58.9029H246.857V53.0777H246.299V51.3301H246.857V40.1456H247.749V34.4369C247.787 34.0097 248.04 33.1553 248.754 33.1553H264.043C264.378 33.1553 265.07 33.4117 265.159 34.4369V40.1456H266.052V51.3301H266.721V53.0777H266.052V78.0097H269.958V46.9029L270.85 45.5049V32.1068L271.297 31.0583V25.699L271.632 24.767V21.0388L278.439 15.2136V8.80583C278.514 8.53398 278.707 8.1534 278.886 8.80583V15.2136L285.693 21.0388V24.767L286.251 25.699V31.0583L286.809 32.1068V45.5049L287.479 46.9029V79.7573H291.831V77.8932C291.273 77.6602 290.492 77.0777 291.831 76.6117H299.085V71.4854H299.755V69.0388H300.536V68.4563H301.428V67.7573H302.321V67.2913H303.102V66.7087H303.772V66.3592H323.413V66.7087H323.971V67.2913H324.976V67.7573H326.092V68.4563H326.985V69.0388H327.877V71.4854H328.547V76.6117H336.917C337.438 76.9223 338.167 77.6136 336.917 77.8932V79.7573H342.05V86.6311H343.39V88.2621H346.626V96.301H349.528V18.3592H350.197L350.42 19.5243H358.456C358.865 18.9806 359.772 18.2194 360.129 19.5243H361.692V14.0485H376.646V19.5243H379.324C379.696 19.0194 380.552 18.3126 380.998 19.5243H386.467L386.913 18.3592H387.583V85H389.034V78.9417H390.484V75.6796H392.27V21.7379L391.712 21.0388V16.8447H396.734V21.0388L396.511 21.6214V78.9417H397.961V75.6796H400.751V78.9417H401.644V75.6796H404.323V78.9417H405.104V75.6796H408.005V78.9417H408.898V75.6796H411.577V79.0583H415.259L424.076 72.068L426.196 67.7573V41.3107H425.415V38.8641H431.776V41.3107H431.106V74.2816L432.334 79.0583H433.45V88.2621H438.137V83.835V83.0194H437.691V82.5534H437.133V81.8544H436.017V81.3884H441.485V77.8932H440.257V77.0777H441.039V73.699H441.485V72.068C443.68 68.4175 449.364 63.3068 454.542 72.068V73.699H455.212V77.0777H456.104V77.8932H454.542V81.3884H459.676V81.8544H458.56V82.5534H458.002V83.0194H457.444V88.2621H463.247V59.4854H466.148V53.1942H467.822V51.9126H470.389V53.1942H475.746V59.4854H478.982V47.9515H480.433C481.214 46.1262 483.201 43.5709 484.897 47.9515H486.125V59.4854H489.138V88.6117H661" stroke="#CEA37E"/>
</svg>
