<svg width="821" height="110" viewBox="0 0 821 110" fill="none" xmlns="http://www.w3.org/2000/svg">
<path d="M0 108.401H19.9486V86.3873L21.165 84.8691V74.3681L22.3814 72.8499V60.8307H23.7194V48.9381L25.0574 47.5464V35.9067L26.7603 39.0697V43.1183H36.8563V39.0697L38.4376 35.9067V60.8307H44.3978L46.709 58.0473L49.5066 60.8307H54.6154V39.0697L56.1967 35.9067V43.1183H66.4143V39.0697L68.1172 35.9067V39.0697L69.5769 41.094V47.5464L70.9149 48.9381V60.8307H72.2529V72.8499L73.4693 74.3681V84.8691L74.6857 86.3873V108.401H76.5102V107.516H77.2401V106.883H78.0915V106.251H78.5781V105.618H79.1863V90.4359H78.4564V89.9298H79.1863V87.6525L78.0915 87.1464H85.0249V80.3145H129.788V86.3873H135.626V84.7426C134.978 84.363 134.069 83.6292 135.626 83.7304L138.789 79.4288H148.033V73.9886H149.858C149.939 74.2838 149.882 74.8742 149.006 74.8742V80.5675H151.196V78.4167H151.804V80.5675H156.913V78.4167H157.643V80.5675H163.36V78.4167H164.211V80.5675H166.522V79.1758L165.549 78.6697H167.617V77.6576H168.833V74.3681H171.388L173.821 71.2052V68.8014H176.983V67.6627C178.686 66.9458 182.773 65.9421 185.498 67.6627V68.8014H190.607V71.2052L193.648 74.3681H195.594V77.6576H197.053V78.6697H198.878L197.905 79.1758V80.5675H200.459V78.4167H201.432V80.5675H205.811V78.4167H206.906V80.5675H211.528V78.4167H212.866V80.5675H214.326V74.8742C213.921 74.832 213.183 74.5959 213.475 73.9886H215.664V79.4288H225.273L228.558 83.9835C229.004 84.1943 229.555 84.7173 228.193 85.1221V109.414H230.747V91.5745H248.871V87.779H255.561V86.8934H257.872V78.4167H257.994V78.6697C258.399 78.5432 259.235 78.3661 259.332 78.6697C259.429 78.9734 260.265 78.8806 260.67 78.7963V80.3145C260.346 80.3988 259.624 80.4916 259.332 80.1879C259.04 79.8843 258.318 80.1458 257.994 80.3145V86.8934H261.157V87.779H268.455V91.3215H287.552V109.414H292.296V89.1707H289.62V86.8934H290.836V85.8812H293.269L294.607 11.7419L298.013 2L301.54 11.7419L302.392 79.4288C307.744 72.5125 322.17 62.8297 337.059 79.4288H338.518V80.441H337.424L338.64 81.7062H341.316V83.0979H340.708V85.8812H349.222V86.7669H350.196V89.1707H348.493V109.414H352.75V89.8033H354.088V81.7062H352.263L356.399 78.5432V73.356H356.642V78.5432L359.927 81.7062H358.71V88.6646H375.861V82.3388H376.956V77.5311H375.496L379.997 73.9886V69.1809L380.848 67.5362L381.7 69.1809V73.9886L386.079 77.1515H384.741V86.7669L387.173 81.7062L390.336 86.7669V63.8672H392.404C392.89 63.4454 393.961 62.602 394.35 62.602V56.6557H394.472V57.4148C394.674 57.5413 395.25 57.7184 395.931 57.4148C396.613 57.1111 397.188 57.4569 397.391 57.6678V59.3125C397.148 59.1438 396.515 58.8571 395.931 59.0595C395.348 59.2619 394.715 59.3125 394.472 59.3125V62.602C395.202 62.855 396.661 63.4623 396.661 63.8672H398.243V88.6646H417.583V81.7062H416.488L419.529 78.5432V73.356L419.772 73.103V78.5432L422.813 81.7062H421.475V88.6646L422.813 92.2071L423.908 90.4359H454.196V80.5675C453.426 80.7784 452.347 80.6687 454.196 78.5432V77.4046H455.899L456.264 76.772V72.5969C455.453 72.8499 454.318 72.8752 456.264 70.9522H457.359V69.1809L458.697 68.5483V63.8672C459.264 62.3489 461.397 59.2113 465.387 58.8065V56.7822L466.481 56.2761V51.7215H465.752L465.995 51.0889L468.184 49.6972V41.6L468.671 40.9675L469.157 41.6V49.6972L471.104 51.0889L471.469 51.7215H470.86V56.2761L471.833 56.7822V58.8065C473.293 59.0173 476.456 60.3247 477.429 63.8672V68.5483L478.524 69.1809V70.9522H479.983C480.835 71.7113 482.027 73.103 479.983 72.5969V76.772L480.835 77.4046H482.659V78.5432C483.267 79.3867 484.119 80.8964 482.659 80.1879V90.4359H513.677L515.745 92.4602H520.124L520.854 90.4359H543.357V86.0078H542.019V83.9835L557.831 79.4288L573.401 83.9835V86.0078H572.063V90.4359H596.999L598.215 92.4602H601.256V109.161H603.811V92.4602H605.392L607.338 90.4359H615.366L616.461 91.448V92.4602H644.803V89.2972L643.1 88.1586L644.438 87.3995V80.0614H647.114L648.573 81.8327H696.499L697.837 80.694H699.905V92.4602H725.205L727.76 90.0563H736.639L737.977 90.942V92.4602H740.045V109.287H741.991V99.6717H744.546V44.8895H746.249V34.009H747.465V29.3278H748.316V25.6588L748.56 24.8997L748.803 25.6588V29.3278H749.776V34.009H750.749V44.8895H752.452V75.1272H762.426V70.3196L765.589 65.8914V62.855C766.116 61.379 767.973 58.1739 771.184 57.1617H773.374V51.0889L774.347 50.4563V47.2933L774.955 46.2812L775.563 47.2933V50.4563L776.536 51.0889V57.1617H778.361C779.861 57.2039 783.081 58.4016 783.956 62.855V65.8914L786.876 70.3196V75.1272H796.607V79.0493L797.458 80.694V99.6717H800.013V109.287H820.813" stroke="#CEA37E"/>
</svg>
