<?xml version="1.0" encoding="UTF-8" standalone="no"?>
<!DOCTYPE svg PUBLIC "-//W3C//DTD SVG 1.1//EN" "http://www.w3.org/Graphics/SVG/1.1/DTD/svg11.dtd">
<svg width="100%" height="100%" viewBox="0 0 349 713" version="1.1" xmlns="http://www.w3.org/2000/svg" xmlns:xlink="http://www.w3.org/1999/xlink" xml:space="preserve" xmlns:serif="http://www.serif.com/" style="fill-rule:evenodd;clip-rule:evenodd;stroke-linecap:round;stroke-linejoin:round;stroke-miterlimit:1.5;">
    <g transform="matrix(1,0,0,1,-724.936,-259.33)">
        <g transform="matrix(1,0,0,1.83575,-71.0221,-896.995)">
            <rect x="797.669" y="968.696" width="4.12" height="1.928"/>
        </g>
        <g transform="matrix(1,0,0,1.83575,272.059,-1438.78)">
            <rect x="797.669" y="968.696" width="4.12" height="1.928"/>
        </g>
        <g transform="matrix(1.61881e-17,-0.264372,0.131118,8.02863e-18,671.915,555.773)">
            <g transform="matrix(1.15184,0,0,1.40569,-468.514,14.2131)">
                <circle cx="851.75" cy="287.789" r="10.231" style="fill:rgb(172,171,171);"/>
            </g>
            <g transform="matrix(1.15184,0,0,1.40569,-391.375,14.2131)">
                <circle cx="851.75" cy="287.789" r="10.231" style="fill:rgb(172,171,171);"/>
            </g>
            <g transform="matrix(1,0,0,1.11792,-350.873,86.0265)">
                <rect x="862.224" y="284.767" width="78.353" height="25.729" style="fill:rgb(172,171,171);"/>
            </g>
        </g>
        <g transform="matrix(1.90573e-17,-0.311229,0.131118,8.02863e-18,671.915,635.98)">
            <g transform="matrix(1.15184,0,0,1.40569,-468.514,14.2131)">
                <circle cx="851.75" cy="287.789" r="10.231" style="fill:rgb(172,171,171);"/>
            </g>
            <g transform="matrix(1.15184,0,0,1.40569,-391.375,14.2131)">
                <circle cx="851.75" cy="287.789" r="10.231" style="fill:rgb(172,171,171);"/>
            </g>
            <g transform="matrix(1,0,0,1.11792,-350.873,86.0265)">
                <rect x="862.224" y="284.767" width="78.353" height="25.729" style="fill:rgb(172,171,171);"/>
            </g>
        </g>
        <g transform="matrix(1.90573e-17,-0.311229,0.131118,8.02863e-18,671.915,672.126)">
            <g transform="matrix(1.15184,0,0,1.40569,-468.514,14.2131)">
                <circle cx="851.75" cy="287.789" r="10.231" style="fill:rgb(172,171,171);"/>
            </g>
            <g transform="matrix(1.15184,0,0,1.40569,-391.375,14.2131)">
                <circle cx="851.75" cy="287.789" r="10.231" style="fill:rgb(172,171,171);"/>
            </g>
            <g transform="matrix(1,0,0,1.11792,-350.873,86.0265)">
                <rect x="862.224" y="284.767" width="78.353" height="25.729" style="fill:rgb(172,171,171);"/>
            </g>
        </g>
        <g transform="matrix(0.917275,0,0,0.949169,62.0696,17.5496)">
            <path d="M1094.03,319.002C1094.03,288.242 1068.19,263.269 1036.36,263.269L791.261,263.269C759.431,263.269 733.59,288.242 733.59,319.002L733.59,942.322C733.59,973.082 759.431,998.055 791.261,998.055L1036.36,998.055C1068.19,998.055 1094.03,973.082 1094.03,942.322L1094.03,319.002Z" style="fill:none;stroke:black;stroke-width:10.47px;"/>
        
        
        
        </g>
        <g transform="matrix(1.15184,0,0,1.40569,-119.68,-105.613)">
            <circle cx="851.75" cy="287.789" r="10.231" style="fill:rgb(23,22,22);"/>
        </g>
        <g transform="matrix(1.15184,0,0,1.40569,-42.5406,-105.613)">
            <circle cx="851.75" cy="287.789" r="10.231" style="fill:rgb(23,22,22);"/>
        </g>
        <g transform="matrix(0.951833,0,0,0.965621,30.4519,6.88063)">
            <path d="M1094.03,323.669C1094.03,290.334 1066.58,263.269 1032.76,263.269L794.865,263.269C761.046,263.269 733.59,290.334 733.59,323.669L733.59,937.654C733.59,970.99 761.046,998.055 794.865,998.055L1032.76,998.055C1066.58,998.055 1094.03,970.99 1094.03,937.654L1094.03,323.669Z" style="fill:none;stroke:rgb(172,171,171);stroke-width:3.35px;"/>
        </g>
        <g transform="matrix(1,0,0,1.83575,272.059,-895.226)">
            <rect x="797.669" y="968.696" width="4.12" height="1.928"/>
        </g>
        <g transform="matrix(1,0,0,1.11792,-2.03893,-33.7995)">
            <rect x="862.224" y="284.767" width="78.353" height="25.729" style="fill:rgb(23,22,22);"/>
        </g>
        <g transform="matrix(1,0,0,1,23.8361,-2.99771)">
            <circle cx="906.037" cy="301.928" r="9.976"/>
        </g>
        <g transform="matrix(1,0,0,1.83575,179.949,-809.591)">
            <rect x="797.669" y="968.696" width="4.12" height="1.928"/>
        </g>
        <g transform="matrix(1,0,0,1.83575,0,-809.591)">
            <rect x="797.669" y="968.696" width="4.12" height="1.928"/>
        </g>
        <g transform="matrix(1,0,0,1.83575,190.493,-1518.96)">
            <rect x="797.669" y="968.696" width="4.12" height="1.928"/>
        </g>
        <g transform="matrix(1,0,0,1.83575,10.5441,-1518.96)">
            <rect x="797.669" y="968.696" width="4.12" height="1.928"/>
        </g>
        <g transform="matrix(1,0,0,1.83575,-71.0221,-1438.78)">
            <rect x="797.669" y="968.696" width="4.12" height="1.928"/>
        </g>
    </g>
</svg>
