<?xml version="1.0" encoding="UTF-8" standalone="no"?>
<!DOCTYPE svg PUBLIC "-//W3C//DTD SVG 1.1//EN" "http://www.w3.org/Graphics/SVG/1.1/DTD/svg11.dtd">
<svg viewBox="0 0 1920 1080" version="1.1" xmlns="http://www.w3.org/2000/svg" xmlns:xlink="http://www.w3.org/1999/xlink" xml:space="preserve" xmlns:serif="http://www.serif.com/" style="fill-rule:evenodd;clip-rule:evenodd;stroke-linecap:round;">
    <g id="outer" transform="matrix(1,0,0,1,5.80297,30.4481)">
        <path d="M965.982,748.55C964.982,723.383 976.182,652.05 1028.98,568.05C1052.32,530.55 1097.08,441.95 1089.48,387.55C1087.98,316.717 1041.68,172.85 868.482,164.05C795.815,156.216 645.882,189.95 627.482,387.55C625.482,412.55 634.882,483.65 688.482,568.05C742.082,652.45 754.815,723.55 754.482,748.55" style="fill:none;stroke:red;stroke-width:26px;"/>
    </g>
    <path id="inner" d="M898.285,778.998C901.318,725.376 909.373,641.101 923.116,582.59M923.116,582.59C932.781,541.44 945.26,513.034 960.785,516.998C998.385,526.598 992.452,555.331 984.785,568.498C978.785,578.665 959.085,596.698 928.285,587.498C927.447,587.184 925.763,585.734 923.116,582.59ZM923.116,582.59C917.337,575.729 906.969,560.8 890.785,531.998C882.285,521.831 860.185,507.598 839.785,531.998C833.176,544.073 819.664,566.462 807.945,579.781M807.945,579.781C804.297,583.927 800.823,587.194 797.785,588.998C785.785,593.165 758.085,594.898 743.285,568.498C728.485,542.098 748.785,524.165 760.785,518.498C772.49,513.634 796.783,520.304 807.945,579.781ZM807.945,579.781C809.021,585.517 809.976,591.743 810.785,598.498L830.785,778.998" style="fill:none;stroke:red;stroke-width:26px;"/>
    <g id="bottom" transform="matrix(1,0,0,1,5.80297,30.4481)">
        <path d="M859.482,1019.05C872.482,1020.51 926.982,992.45 922.982,956.05L965.982,956.05C973.982,950.05 987.582,933.45 977.982,915.05C968.382,896.65 967.315,878.383 967.982,871.55C969.315,861.55 974.282,838.15 983.482,824.55C983.982,815.717 979.882,797.85 959.482,797.05C939.082,796.25 814.315,796.717 754.482,797.05C746.649,799.883 731.682,809.35 734.482,824.55C739.315,833.05 748.982,854.35 748.982,871.55C748.982,888.75 741.982,907.717 738.482,915.05C733.815,922.05 729.382,940.05 748.982,956.05L792.482,956.05C793.482,975.217 809.482,1013.45 859.482,1019.05Z" style="fill:none;stroke:red;stroke-width:26px;"/>
    </g>
    <path id="light-lines" serif:id="light lines" d="M1193.29,429.998L1256.79,429.998M1179.54,310.948L1225.04,293.448M1111.54,205.448L1166.54,147.448M1004.03,135.448L1022.03,91.948M877.035,113.448L877.035,30.448M756.035,135.448L735.535,91.948M649.535,205.448L588.035,144.448M581.035,314.448L529.535,290.948M554.035,437.948L468.035,437.948" style="fill:none;stroke:red;stroke-width:26px;"/>
</svg>
