<svg width="732" height="100" viewBox="0 0 732 100" fill="none" xmlns="http://www.w3.org/2000/svg">
<path d="M1 98.0809C16.0466 89.9525 53.4155 65.92 82.518 34.8173V33.322C82.7398 32.7469 83.3165 31.9417 83.8489 33.322V34.8173H91.058V33.322C91.3167 32.6702 92.0339 31.7576 92.8325 33.322V34.8173C103.591 51.0358 128.479 83.7948 141.965 85.0831C144.96 85.9266 153.544 83.8868 163.925 68.9796V68.2895C164.258 67.676 165.034 66.8172 165.478 68.2895H168.472C168.731 67.676 169.36 66.8172 169.803 68.2895V70.82C170.136 71.7402 171.445 74.2478 174.018 76.9163H176.569C180.34 73.0822 190.011 67.7144 198.529 76.9163H199.97C200.155 76.3029 200.614 75.444 200.969 76.9163V77.8365H202.299V84.508H222.152V81.9774H224.37V71.6252H226.145V68.9796H226.699V65.874C226.958 65.1071 228.186 63.1824 231.025 61.618V58.2823C231.358 57.9756 232.2 57.3391 232.91 57.2471V54.0264C233.169 52.9528 233.731 51.4499 233.909 54.0264V57.2471C234.352 57.4388 235.284 57.9142 235.461 58.2823C235.639 58.6504 235.535 60.6595 235.461 61.618C236.718 62.2315 239.41 63.9415 240.119 65.874V68.9796H241.007V71.6252H242.781V81.9774H244.667V84.508H273.17V72.2003H280.712V97.9659H285.592V72.2003H292.579V97.9659H296.35V72.2003H309.881V84.1629C310.583 83.5494 311.988 82.1155 311.988 81.2873C311.988 80.4591 311.988 79.1785 311.988 78.6417H313.319V75.306H316.203V63.8035H318.865C319.086 61.5797 319.974 58.0983 321.748 61.9631H323.19V52.4161H324.743C326.369 50.8824 330.377 48.7353 333.394 52.4161H335.279V59.5476H338.939C339.124 58.8958 339.627 57.9833 340.159 59.5476V61.9631C340.751 62.2315 342.022 62.8373 342.377 63.1134C342.732 63.3894 343.708 63.2284 344.152 63.1134V81.2873C345.039 81.9391 346.88 83.4267 347.146 84.1629C347.413 84.899 347.701 84.9297 347.812 84.853V31.7116H351.028V27.9158H364.781V31.7116H370.104V45.3996H372.323L373.654 43.5592H376.315V32.2867C376.537 31.3665 377.18 30.0783 377.979 32.2867V43.5592H381.306V32.2867C381.491 31.4432 382.016 30.2623 382.637 32.2867V43.5592H385.41L387.517 44.9395H389.846V84.853L394.504 53.4513V31.0215C394.948 30.8681 395.88 30.4693 396.057 30.1013C396.235 29.7332 397.314 18.9822 397.832 13.6527L400.05 30.1013L402.046 30.5614V53.4513L406.704 93.1348V76.1112H409.699V63.1134H411.695V60.2377C412.065 59.7393 412.849 58.4204 413.026 57.1321H417.573V51.1508C417.906 50.1156 418.793 48.6663 419.681 51.1508V57.1321H423.784C424.265 58.1673 425.404 60.2377 426.113 60.2377V63.1134H428.553V76.1112H432.213V25.7303C432.62 18.9822 433.966 4.58877 436.095 1H443.97C445.153 3.53054 447.696 12.0194 448.406 25.7303V42.639H462.602C462.861 43.2524 463.357 44.5714 463.268 44.9395C463.179 45.3075 464.784 45.0928 465.597 44.9395V73.2355C466.299 74.0791 467.904 75.26 468.702 73.2355V36.3126L477.132 37.0027L485.561 36.3126V17.7936H486.892V25.7303L498.315 29.5261V95.8954H501.753V39.0732L503.084 38.153V35.2774H510.737V89.339L513.731 87.6136V49.4254L514.73 47.585H516.06V41.8338H520.386V47.585L522.271 49.4254V82.0924C523.602 81.1722 526.53 79.884 527.595 82.0924V83.7028L529.591 82.0924V65.6439L530.811 64.4937V56.0969H536.357V64.4937L537.244 65.6439V81.2873L539.019 82.6676L540.239 82.0924C540.719 82.2842 541.747 82.6676 542.013 82.6676C542.279 82.6676 543.455 82.6676 544.01 82.6676L544.675 84.623L546.45 85.3131C546.782 85.3515 547.514 85.4972 547.78 85.7732C548.047 86.0493 548.483 86.8851 548.668 87.2686L549.888 87.6136L551.329 88.7639C551.884 88.6872 553.038 88.4878 553.215 88.3038C553.437 88.0737 553.437 86.9235 553.88 87.2686C554.235 87.5446 554.546 88.3805 554.657 88.7639C554.62 88.9556 554.635 89.339 554.99 89.339C555.344 89.339 556.025 89.339 556.32 89.339L557.54 88.7639L558.317 89.339C558.502 89.7608 559.027 90.6273 559.648 90.7193C560.269 90.8113 560.942 90.7576 561.2 90.7193L564.971 92.6747C565.267 92.7131 565.947 92.8588 566.302 93.1348C566.657 93.4109 568.668 94.0934 569.629 94.4001L571.626 96.4705C571.959 96.8923 572.779 97.8048 573.4 98.0809C574.021 98.3569 579.205 98.1959 581.719 98.0809C584.122 96.4322 589.327 93.1348 590.924 93.1348C592.92 93.1348 596.137 90.7193 596.913 90.7193C597.689 90.7193 600.018 91.0644 601.128 90.7193C602.237 90.3742 603.568 90.7193 604.011 90.7193C604.455 90.7193 612.551 89.5691 613.438 89.7991C614.326 90.0292 614.88 88.9939 614.991 88.3038C615.08 87.7517 615.028 85.6199 614.991 84.623H619.982V80.022C620.352 79.1401 621.269 77.9055 621.978 80.022V86.8085H625.417V83.7028H646.046L646.822 84.623H658.578V87.4986H666.342L668.56 89.109H670.778H671.998L672.22 84.1629C671.629 83.1277 671.776 80.8272 673.884 80.9422C674.882 80.9422 676.568 81.8624 675.326 83.7028V89.109H689.633L693.404 91.1794H695.844V89.454L698.173 89.339L698.505 83.7028H700.058V89.7991H707.711V93.0198L713.478 98.771H732" stroke="#CEA37E"/>
</svg>
