<svg width="898" height="124" viewBox="0 0 898 124" fill="none" xmlns="http://www.w3.org/2000/svg">
<path d="M897.497 122.03H874.566L868.3 117.843C866.478 117.699 862.994 117.872 863.634 119.72H862.434V115.966H856.835V113.656H854.035V118.421H850.969C848.524 116.544 843.343 113.974 842.17 118.709H841.236V112.357C841.903 111.972 843.263 111.029 843.369 110.336H851.369C851.102 109.854 850.249 108.834 848.969 108.603L846.569 105.716H842.836C842.303 106.004 841.236 106.697 841.236 107.159C841.236 107.621 840.436 107.352 840.036 107.159C839.548 106.534 838.437 105.369 837.903 105.716C837.237 106.149 834.837 107.304 838.837 111.058V118.421H836.97V111.058C836.037 110.191 833.904 108.979 832.838 111.058H828.838V108.603H827.238V107.159H825.505V105.86H824.305V105.283H823.505V105.86H822.572V106.726H821.506V107.159H820.306V107.737H819.506V108.459H818.573V115.966H815.64V110.624H814.84V109.036H803.508V107.015H800.441V108.17H794.309V107.159H793.109V106.293H791.109V106.726L790.709 107.159H790.176L789.909 107.448L789.509 107.881V108.603H784.576V111.346C771.6 110.095 740.688 107.159 720.851 105.427C705.297 93.7806 663.07 77.4758 618.596 105.427C602.953 106.245 568.095 108.401 553.803 110.48V57.2055H546.604V50.4198H527.139V57.2055H520.34V110.48H512.608V88.535C512.163 87.5243 511.221 85.3876 511.008 84.9256C510.795 84.4636 510.919 80.9793 511.008 79.2949C509.719 72.1724 507.195 57.783 507.408 57.2055C507.675 56.4836 503.942 78.1399 503.542 78.4287C503.222 78.6597 503.142 82.6637 503.142 84.6368L501.009 88.535L501.409 88.8237V97.775H495.809V63.8468C495.943 63.558 496.236 61.941 496.343 57.783C496.449 53.625 496.387 50.7567 496.343 49.8423C496.432 49.3611 496.663 48.3697 496.876 48.2542C497.089 48.1387 497.409 47.4361 497.542 47.0992L497.809 46.5217V45.2223L497.942 45.0779V44.7892H499.094C499.562 44.7892 499.749 44.2356 499.365 43.9683C498.837 43.6006 498.328 43.2653 498.209 43.2011C497.996 43.0856 497.409 42.6717 497.143 42.4792H496.343L495.809 35.5492L495.543 32.6616L496.476 31.7954L494.61 31.5066L493.81 27.3198V1.76528C493.41 1.18778 492.37 0.37928 491.41 1.76528V27.3198L490.743 31.5066L488.877 31.7954L490.077 32.6616L488.877 42.4792H487.944L487.144 43.2011L485.599 44.1212C485.205 44.3559 485.308 44.9528 485.758 45.0414L485.944 45.0779C486.166 45.1742 486.637 45.4822 486.744 45.9442C486.877 46.5217 487.81 47.6767 488.21 47.9655C488.53 48.1965 488.521 49.2167 488.477 49.698C488.743 54.2699 489.33 63.5002 489.543 63.8468C489.757 64.1933 489.632 86.61 489.543 97.775H473.012V38.1479H466.346V32.6616H463.28H462.213C460.836 28.3785 456.827 22.3821 451.814 32.6616H448.215V112.068H443.149V53.0186L438.616 50.7086V45.5111H437.016V41.4686H426.884C426.528 30.9773 425.711 16.2895 425.284 41.4686H415.552V45.5111H413.152V27.7529H408.486L408.353 17.3579C408.486 16.4435 409.019 14.2971 410.086 13.0266H387.289C385.733 16.251 382.489 24.4323 381.956 31.3623V56.9167H376.223V53.4517H350.626V56.9167H338.761V98.93H331.828V95.0319C333.117 94.5506 334.921 93.5015 331.828 93.155V84.3481C330.851 78.91 328.069 71.2966 324.762 84.3481V93.155C323.74 93.2513 322.309 93.7614 324.762 95.0319V98.93H301.299L296.632 102.395H293.833V110.047H291.833V86.9469L289.7 83.4818L287.3 86.8025V110.047H285.034V39.5917H281.967V35.6935H275.968V32.806H272.635C271.346 29.3892 268.129 22.6998 265.569 23.2773C263.01 23.8548 260.325 29.8704 259.303 32.806V67.023H257.17V61.5368H243.572V67.023H241.439V26.4535H237.972V24.2879C238.861 23.181 240.106 20.7651 237.972 19.9566C231.129 16.6841 216.562 11.8427 213.042 18.6572C212.953 19.8604 213.655 22.4688 217.175 23.2773V26.4535H212.509V93.155H210.642V37.4261H197.044V106.438H193.844V56.9167H184.112L182.646 49.9867L175.313 45.078L162.648 51.2861V58.5049H160.382L158.515 61.6811H154.116V110.047L148.516 113.079V104.849H145.05V86.8025L144.65 86.3693L144.25 86.8025V88.6794H142.917L142.65 88.1019L141.584 87.9575V82.0381L141.05 81.4606L140.384 82.1825V87.9575L139.051 88.1019L138.784 88.6794H137.318V86.8025L136.918 86.3693L136.518 86.8025V104.849H133.051V113.079H131.452L127.585 110.047L123.986 113.079H121.319V114.811H118.386L112.787 111.779H110.254L106.654 108.748H103.321L99.3219 105.571H95.589C94.0336 103.839 89.4564 100.287 83.5904 99.9406V98.2081L82.5238 97.0531V83.7706C82.1683 82.8562 81.2706 81.5761 80.5241 83.7706V97.0531L79.5908 98.0638V99.9406C75.3691 101.433 65.8324 105.283 61.4596 108.748H56.3935L50.5275 113.079H47.8612L40.5287 117.121C36.3958 118.084 27.3835 120.586 24.3972 122.896H0" stroke="#CEA37E"/>
</svg>
