<?xml version="1.0" encoding="UTF-8" standalone="no"?>
<!DOCTYPE svg PUBLIC "-//W3C//DTD SVG 1.1//EN" "http://www.w3.org/Graphics/SVG/1.1/DTD/svg11.dtd">
<svg width="100%" height="100%" viewBox="0 0 888 182" version="1.1" xmlns="http://www.w3.org/2000/svg" xmlns:xlink="http://www.w3.org/1999/xlink" xml:space="preserve" xmlns:serif="http://www.serif.com/" style="fill-rule:evenodd;clip-rule:evenodd;stroke-linejoin:round;stroke-miterlimit:2;">
    <g transform="matrix(1,0,0,1,-565.03,-251.191)">
        <path id="ann-arbor-filled-in" serif:id="ann arbor filled in" d="M628.561,337.525L641.783,337.525L665.483,331.926L665.483,329.321L660.493,329.321L658.622,324.894L664.235,324.894L663.113,321.508L658.373,321.508L656.876,317.341L662.115,317.341L661.117,314.476L656.502,314.476L656.502,306.663L667.603,306.663L667.603,303.538L669.349,303.538C670.015,302.887 672.093,301.976 675.087,303.538L676.459,303.538L676.459,309.789L677.457,309.789L677.457,310.961L676.459,310.961L676.459,318.904L677.457,318.904L677.457,320.466L676.459,320.466L676.459,328.019L677.457,328.019L677.457,329.321L676.459,329.321L676.459,336.613L677.457,336.613L677.457,338.176L676.459,338.176L676.459,345.989L677.457,345.989L677.457,347.291L676.459,347.291L676.459,357.969L679.952,357.969L679.952,269.421L680.824,269.421L680.824,267.598L684.068,267.598L684.068,265.385L686.063,265.385L686.063,251.191L688.059,251.191L688.059,265.385L692.55,265.385L692.55,267.598L700.408,267.598L700.408,263.952L711.384,263.952L711.384,267.598L716.623,267.598L716.623,269.552L717.87,269.552L717.87,333.618L718.743,333.098L718.743,332.056L719.367,331.795L719.367,330.884L719.991,330.363L719.991,329.582L720.74,329.191L720.74,328.279L721.488,327.368L721.987,328.149L721.987,329.191L722.736,329.451L722.736,330.363L723.234,330.884L723.234,331.795L723.983,331.926L724.482,331.926L724.482,329.582L725.105,329.582L725.105,334.4L727.475,334.4L727.475,310.57L729.72,307.966L730.344,304.189L730.842,307.966L733.213,310.57L733.213,320.597L742.443,315.648L751.923,320.597L751.923,310.57L754.044,307.966L754.542,304.189L755.166,307.966L757.286,310.57L757.286,358.49L758.784,358.49L758.784,348.593L759.407,347.421L759.407,329.321L760.031,326.847L760.031,314.346L760.655,312.914L760.655,298.85L761.278,297.939L761.278,295.725L762.65,295.725L762.65,297.939L763.399,298.85L763.399,300.934L764.397,301.325L764.397,302.496L765.768,302.496L765.768,301.325L766.392,301.325L766.392,302.496L767.639,302.496L767.639,301.455L768.139,301.455L768.139,302.496L769.51,302.496L769.51,301.325L770.259,300.934L770.259,298.85L771.007,297.809L771.007,295.725L772.254,295.725L772.254,297.939L772.878,298.85L772.878,312.914L773.876,314.346L782.109,307.054L790.091,314.346L791.09,312.914L791.09,298.85L791.837,297.939L791.837,295.725L793.21,295.725L793.21,297.939L793.958,298.85L793.958,300.934L794.706,300.934L794.706,302.496L795.954,302.496L795.954,301.455L796.703,301.455L796.703,302.496L797.825,302.496L797.825,301.455L798.574,301.455L798.574,302.496L799.821,302.496L799.821,301.325L800.694,300.934L800.694,298.85L801.442,297.939L801.442,295.725L802.565,295.725L802.565,297.939L803.563,298.85L803.563,312.914L804.311,314.346L804.311,326.847L804.934,329.321L805.184,347.291L805.933,348.593L806.556,348.593L806.556,316.169L808.178,316.169L814.539,308.356L820.401,315.909L827.761,315.909L827.761,304.971L839.735,304.971L839.735,315.909L842.106,315.909L842.106,309.398L841.482,309.398L841.482,307.445L842.106,307.445L842.106,294.944L843.103,294.944L843.103,288.563C843.145,288.086 843.428,287.131 844.226,287.131L861.314,287.131C861.689,287.131 862.462,287.417 862.562,288.563L862.562,294.944L863.56,294.944L863.56,307.445L864.308,307.445L864.308,309.398L863.56,309.398L863.56,337.264L867.926,337.264L867.926,302.496L868.923,300.934L868.923,285.959L869.422,284.787L869.422,278.797L869.797,277.755L869.797,273.588L877.405,267.077L877.405,259.916C877.489,259.612 877.704,259.186 877.904,259.916L877.904,267.077L885.512,273.588L885.512,277.755L886.136,278.797L886.136,284.787L886.76,285.959L886.76,300.934L887.509,302.496L887.509,339.218L892.373,339.218L892.373,337.134C891.749,336.874 890.876,336.223 892.373,335.702L900.481,335.702L900.481,329.972L901.229,329.972L901.229,327.238L902.102,327.238L902.102,326.587L903.099,326.587L903.099,325.805L904.097,325.805L904.097,325.284L904.97,325.284L904.97,324.633L905.719,324.633L905.719,324.243L927.672,324.243L927.672,324.633L928.296,324.633L928.296,325.284L929.419,325.284L929.419,325.805L930.666,325.805L930.666,326.587L931.664,326.587L931.664,327.238L932.661,327.238L932.661,329.972L933.41,329.972L933.41,335.702L942.765,335.702C943.348,336.049 944.162,336.822 942.765,337.134L942.765,339.218L948.502,339.218L948.502,346.9L950,346.9L950,348.723L953.617,348.723L953.617,357.708L956.861,357.708L956.861,270.593L957.608,270.593L957.858,271.896L966.839,271.896C967.296,271.288 968.31,270.437 968.709,271.896L970.456,271.896L970.456,265.775L987.17,265.775L987.17,271.896L990.163,271.896C990.579,271.331 991.536,270.541 992.034,271.896L998.147,271.896L998.646,270.593L999.394,270.593L999.394,345.077L1001.02,345.077L1001.02,338.306L1002.64,338.306L1002.64,334.66L1004.63,334.66L1004.63,274.37L1004.01,273.588L1004.01,268.901L1009.62,268.901L1009.62,273.588L1009.37,274.239L1009.37,338.306L1010.99,338.306L1010.99,334.66L1014.11,334.66L1014.11,338.306L1015.11,338.306L1015.11,334.66L1018.11,334.66L1018.11,338.306L1018.98,338.306L1018.98,334.66L1022.22,334.66L1022.22,338.306L1023.22,338.306L1023.22,334.66L1026.21,334.66L1026.21,338.436L1030.33,338.436L1040.18,330.623L1042.55,325.805L1042.55,296.246L1041.68,296.246L1041.68,293.512L1048.79,293.512L1048.79,296.246L1048.04,296.246L1048.04,333.098L1049.41,338.436L1050.66,338.436L1050.66,348.723L1055.9,348.723L1055.9,342.864L1055.4,342.864L1055.4,342.343L1054.78,342.343L1054.78,341.562L1053.53,341.562L1053.53,341.041L1059.64,341.041L1059.64,337.134L1058.27,337.134L1058.27,336.223L1059.14,336.223L1059.14,332.446L1059.64,332.446L1059.64,330.623C1062.09,326.543 1068.45,320.831 1074.23,330.623L1074.23,332.446L1074.98,332.446L1074.98,336.223L1075.98,336.223L1075.98,337.134L1074.23,337.134L1074.23,341.041L1079.97,341.041L1079.97,341.562L1078.72,341.562L1078.72,342.343L1078.1,342.343L1078.1,342.864L1077.48,342.864L1077.48,348.723L1083.96,348.723L1083.96,316.56L1087.21,316.56L1087.21,309.528L1089.08,309.528L1089.08,308.096L1091.95,308.096L1091.95,309.528L1097.93,309.528L1097.93,316.56L1101.55,316.56L1101.55,303.668L1103.17,303.668C1104.05,301.628 1106.27,298.772 1108.16,303.668L1109.53,303.668L1109.53,316.56L1112.9,316.56L1112.9,349.114L1117.34,349.114L1117.34,322.46L1126.27,322.46L1126.27,315.293L1126.86,315.293L1126.86,316.953L1138.47,316.953L1144.3,312.01L1145.99,312.01L1145.99,311.227L1151.13,311.227L1151.13,310.298L1160.81,310.298L1160.81,311.227L1166.25,311.227L1166.25,311.692L1167.66,311.692L1173.1,316.839L1184.93,316.839L1184.93,315.312L1186.04,315.312L1186.04,322.747L1195.15,322.747L1195.15,348.048L1200.19,348.048L1200.19,312.274L1196.37,307.843L1196.37,298.892L1197.45,298.892L1197.45,287.576L1199.31,287.576L1199.31,283.055L1198.35,283.055L1201.91,278.984L1208.74,278.984L1212.81,282.876L1211.37,282.876L1211.37,287.516L1213.74,287.516L1213.74,299.012L1214.76,299.012L1214.76,307.664L1210.03,312.005L1210.03,348.139L1226.6,348.139L1226.6,313.295L1252.29,313.295L1252.29,345.201L1255,345.201L1255,300.962C1255,300.962 1261.56,298.36 1269.82,308.43L1269.82,341.128L1274.91,341.128L1274.91,303.781L1291.43,302.2L1293.43,305.073L1303.9,303.781L1303.9,349.042L1310.88,349.042L1310.88,317.606L1311.85,317.606L1311.85,316.542L1329.4,316.542L1329.4,317.562L1330.35,317.562L1330.35,348.774L1335.76,348.774L1335.76,320.942L1334.87,320.942L1334.87,320.022L1336.17,320.022L1336.17,316.719L1338,316.719L1338,312.603L1354.24,312.603L1354.24,310.755C1354.24,310.755 1357.2,306.919 1359.7,310.755L1359.7,312.926L1376.23,312.926L1376.23,316.51L1377.85,316.51L1377.85,320.044L1378.76,320.044L1378.76,321.028L1377.85,321.028L1377.85,348.86L1386.28,348.86L1386.28,339.296L1392,334.662L1396.88,339.198L1396.88,348.762L1402.89,347.899L1405.23,348.762L1409.17,349.008L1414.23,349.501L1423.35,349.624L1427.91,351.103L1432.59,351.227L1435.18,350.364L1442.58,350.734L1447.75,353.198L1450.71,352.459L1452.43,352.706L1452.43,432.405L565.03,432.405L565.03,359.527L566.157,359.527L566.157,341.546L565.144,341.546L565.144,340.396L566.157,340.396L566.157,333.922L565.03,333.922L565.03,333.137L566.157,333.137L566.157,325.571L565.128,325.571L565.128,324.883L566.157,324.883L566.157,318.014L565.104,318.014L565.104,317.302L566.157,317.302L566.157,308.27L565.282,308.27L565.282,307.463L566.195,307.463L566.195,303.408L567.068,303.408C567.401,302.67 568.465,301.663 570.061,303.538L571.932,303.538L571.932,306.663L582.909,306.663L582.909,314.607L578.169,314.607L577.171,317.211L582.909,317.211L580.913,321.508L576.049,321.508L575.051,325.154L580.913,325.154L579.167,329.321L574.677,329.321L574.677,331.795L597.628,337.525L610.725,337.525L610.725,330.102L608.978,330.102L608.978,324.633L610.725,324.633L610.725,316.951L608.978,316.951L608.978,311.742L615.09,311.742L619.456,319.164L623.822,311.742L630.183,311.742L630.183,316.951L628.437,316.951L628.437,324.633L630.183,324.633L630.183,330.102L628.561,330.102L628.561,337.525Z" style="fill:rgb(235,235,235);"/>
    </g>
</svg>
