<?xml version="1.0" encoding="UTF-8" standalone="no"?>
<!DOCTYPE svg PUBLIC "-//W3C//DTD SVG 1.1//EN" "http://www.w3.org/Graphics/SVG/1.1/DTD/svg11.dtd">
<svg width="100%" height="100%" viewBox="0 0 888 109" version="1.1" xmlns="http://www.w3.org/2000/svg" xmlns:xlink="http://www.w3.org/1999/xlink" xml:space="preserve" xmlns:serif="http://www.serif.com/" style="fill-rule:evenodd;clip-rule:evenodd;stroke-linejoin:round;stroke-miterlimit:2;">
    <g transform="matrix(1,0,0,1,-562.232,-226.413)">
        <g transform="matrix(1.00237,0,0,1.00741,104.828,-126.492)">
            <path id="ann-arbor-filled-in" serif:id="ann arbor filled in" d="M457.449,457.848L1341.63,457.848L1341.63,451.076L1339.91,450.832L1336.96,451.566L1331.8,449.119L1324.42,448.752L1321.84,449.608L1317.17,449.486L1312.62,448.018L1303.52,447.896L1298.48,447.406L1294.54,447.162L1292.21,446.305L1286.21,447.162L1286.21,437.668L1281.34,433.166L1275.63,437.766L1275.63,447.259L1267.22,447.259L1267.22,419.632L1268.13,419.632L1268.13,418.655L1267.22,418.655L1267.22,415.147L1265.61,415.147L1265.61,411.589L1249.12,411.589L1249.12,409.435C1246.62,405.626 1243.67,409.435 1243.67,409.435L1243.67,411.269L1227.47,411.269L1227.47,415.355L1225.65,415.355L1225.65,418.634L1224.35,418.634L1224.35,419.547L1225.24,419.547L1225.24,447.174L1219.84,447.174L1219.84,416.191L1218.89,416.191L1218.89,415.179L1201.38,415.179L1201.38,416.235L1200.42,416.235L1200.42,447.44L1193.45,447.44L1193.45,402.512L1183,403.794L1181.01,400.942L1164.53,402.512L1164.53,439.584L1159.45,439.584L1159.45,407.126C1151.21,397.131 1144.67,399.714 1144.67,399.714L1144.67,443.627L1141.96,443.627L1141.96,411.956L1116.34,411.956L1116.34,446.544L1099.8,446.544L1099.8,410.675L1104.52,406.366L1104.52,397.778L1103.5,397.778L1103.5,386.366L1101.14,386.366L1101.14,381.76L1102.58,381.76L1098.51,377.897L1091.7,377.897L1088.15,381.938L1089.11,381.938L1089.11,386.426L1087.25,386.426L1087.25,397.659L1086.18,397.659L1086.18,406.544L1089.99,410.942L1089.99,446.453L1084.96,446.453L1084.96,421.338L1075.86,421.338L1075.86,413.958L1074.77,413.958L1074.77,415.473L1062.96,415.473L1057.53,410.365L1056.13,410.365L1056.13,409.903L1050.69,409.903L1050.69,408.981L1041.04,408.981L1041.04,409.903L1035.91,409.903L1035.91,410.681L1034.22,410.681L1028.41,415.586L1016.82,415.586L1016.82,413.939L1016.24,413.939L1016.24,421.053L1007.33,421.053L1007.33,447.512L1002.9,447.512L1002.9,415.197L999.544,415.197L999.544,402.4L998.174,402.4C996.283,397.54 994.068,400.375 993.197,402.4L991.579,402.4L991.579,415.197L987.97,415.197L987.97,408.217L981.997,408.217L981.997,406.795L979.135,406.795L979.135,408.217L977.268,408.217L977.268,415.197L974.033,415.197L974.033,447.124L967.563,447.124L967.563,441.307L968.185,441.307L968.185,440.79L968.807,440.79L968.807,440.014L970.051,440.014L970.051,439.497L964.327,439.497L964.327,435.62L966.068,435.62L966.068,434.715L965.074,434.715L965.074,430.966L964.327,430.966L964.327,429.157C958.553,419.436 952.215,425.107 949.767,429.157L949.767,430.966L949.27,430.966L949.27,434.715L948.398,434.715L948.398,435.62L949.767,435.62L949.767,439.497L943.67,439.497L943.67,440.014L944.915,440.014L944.915,440.79L945.537,440.79L945.537,441.307L946.034,441.307L946.034,447.124L940.808,447.124L940.808,436.912L939.564,436.912L938.194,431.613L938.194,395.032L938.941,395.032L938.941,392.318L931.848,392.318L931.848,395.032L932.719,395.032L932.719,424.374L930.355,429.157L920.524,436.912L916.418,436.912L916.418,433.164L913.431,433.164L913.431,436.783L912.435,436.783L912.435,433.164L909.201,433.164L909.201,436.783L908.33,436.783L908.33,433.164L905.342,433.164L905.342,436.783L904.347,436.783L904.347,433.164L901.236,433.164L901.236,436.783L899.619,436.783L899.619,373.188L899.868,372.541L899.868,367.888L894.268,367.888L894.268,372.541L894.89,373.317L894.89,433.164L892.898,433.164L892.898,436.783L891.282,436.783L891.282,443.504L889.664,443.504L889.664,369.568L888.917,369.568L888.419,370.861L882.321,370.861C881.824,369.516 880.869,370.301 880.454,370.861L877.468,370.861L877.468,364.786L860.794,364.786L860.794,370.861L859.051,370.861C858.653,369.413 857.641,370.258 857.185,370.861L848.225,370.861L847.976,369.568L847.23,369.568L847.23,456.043L843.994,456.043L843.994,447.124L840.386,447.124L840.386,445.314L838.892,445.314L838.892,437.688L833.168,437.688L833.168,435.62C834.562,435.309 833.749,434.542 833.168,434.198L823.835,434.198L823.835,428.51L823.088,428.51L823.088,425.796L822.093,425.796L822.093,425.15L821.098,425.15L821.098,424.374L819.853,424.374L819.853,423.857L818.733,423.857L818.733,423.211L818.11,423.211L818.11,422.823L796.21,422.823L796.21,423.211L795.463,423.211L795.463,423.857L794.592,423.857L794.592,424.374L793.596,424.374L793.596,425.15L792.601,425.15L792.601,425.796L791.73,425.796L791.73,428.51L790.983,428.51L790.983,434.198L782.895,434.198C781.402,434.715 782.273,435.361 782.895,435.62L782.895,437.688L778.042,437.688L778.042,401.237L777.295,399.686L777.295,384.821L776.673,383.658L776.673,377.712L776.051,376.677L776.051,372.541L768.46,366.078L768.46,358.969C768.261,358.245 768.046,358.667 767.962,358.969L767.962,366.078L760.372,372.541L760.372,376.677L759.998,377.712L759.998,383.658L759.5,384.821L759.5,399.686L758.505,401.237L758.505,435.749L754.15,435.749L754.15,408.087L754.896,408.087L754.896,406.149L754.15,406.149L754.15,393.74L753.154,393.74L753.154,387.406C753.055,386.269 752.283,385.984 751.91,385.984L734.861,385.984C734.065,385.984 733.783,386.932 733.741,387.406L733.741,393.74L732.746,393.74L732.746,406.149L732.124,406.149L732.124,408.087L732.746,408.087L732.746,414.55L730.381,414.55L730.381,403.693L718.436,403.693L718.436,414.55L711.093,414.55L705.244,407.053L698.899,414.809L697.281,414.809L697.281,446.994L696.658,446.994L695.911,445.702L695.663,427.864L695.041,425.408L695.041,412.999L694.295,411.577L694.295,397.617L693.299,396.713L693.299,394.515L692.178,394.515L692.178,396.713L691.432,397.617L691.432,399.686L690.561,400.073L690.561,401.237L689.317,401.237L689.317,400.203L688.57,400.203L688.57,401.237L687.45,401.237L687.45,400.203L686.703,400.203L686.703,401.237L685.459,401.237L685.459,399.686L684.712,399.686L684.712,397.617L683.966,396.713L683.966,394.515L682.596,394.515L682.596,396.713L681.851,397.617L681.851,411.577L680.855,412.999L672.891,405.761L664.678,412.999L663.682,411.577L663.682,397.617L663.06,396.713L663.06,394.515L661.815,394.515L661.815,396.583L661.069,397.617L661.069,399.686L660.322,400.073L660.322,401.237L658.954,401.237L658.954,400.203L658.456,400.203L658.456,401.237L657.211,401.237L657.211,400.073L656.589,400.073L656.589,401.237L655.221,401.237L655.221,400.073L654.225,399.686L654.225,397.617L653.478,396.713L653.478,394.515L652.11,394.515L652.11,396.713L651.488,397.617L651.488,411.577L650.865,412.999L650.865,425.408L650.243,427.864L650.243,445.831L649.621,446.994L649.621,456.818L648.127,456.818L648.127,409.251L646.011,406.666L645.389,402.917L644.892,406.666L642.777,409.251L642.777,419.204L633.319,414.292L624.111,419.204L624.111,409.251L621.746,406.666L621.248,402.917L620.626,406.666L618.386,409.251L618.386,432.905L616.022,432.905L616.022,428.123L615.4,428.123L615.4,430.449L614.903,430.449L614.155,430.32L614.155,429.415L613.658,428.898L613.658,427.993L612.911,427.735L612.911,426.701L612.414,425.925L611.667,426.83L611.667,427.735L610.92,428.123L610.92,428.898L610.297,429.415L610.297,430.32L609.675,430.578L609.675,431.613L608.804,432.13L608.804,368.534L607.56,368.534L607.56,366.595L602.334,366.595L602.334,362.976L591.383,362.976L591.383,366.595L583.544,366.595L583.544,364.398L579.063,364.398L579.063,350.309L577.072,350.309L577.072,364.398L575.082,364.398L575.082,366.595L571.846,366.595L571.846,368.405L570.975,368.405L570.975,456.301L567.491,456.301L567.491,445.702L568.486,445.702L568.486,444.409L567.491,444.409L567.491,436.654L568.486,436.654L568.486,435.103L567.491,435.103L567.491,427.864L568.486,427.864L568.486,426.572L567.491,426.572L567.491,419.074L568.486,419.074L568.486,417.523L567.491,417.523L567.491,409.639L568.486,409.639L568.486,408.475L567.491,408.475L567.491,402.271L566.122,402.271C563.135,400.72 561.061,401.625 560.398,402.271L558.656,402.271L558.656,405.373L547.581,405.373L547.581,413.129L552.185,413.129L553.18,415.972L547.954,415.972L549.447,420.108L554.176,420.108L555.296,423.469L549.696,423.469L551.562,427.864L556.54,427.864L556.54,430.449L532.897,436.007L504.4,436.007L504.4,428.64L508.133,428.64L508.133,423.211L506.516,423.211L506.516,418.557L510.871,425.796L514.977,418.557L514.977,423.211L513.609,423.211L513.609,428.64L517.093,428.64L517.093,436.007L519.706,436.007L519.706,428.64L521.324,428.64L521.324,423.211L519.582,423.211L519.582,415.585L521.324,415.585L521.324,410.414L514.977,410.414L510.622,417.782L506.267,410.414L500.169,410.414L500.169,415.585L501.911,415.585L501.911,423.211L500.169,423.211L500.169,428.64L501.911,428.64L501.911,436.007L488.845,436.007L465.948,430.32L465.948,427.864L470.428,427.864L472.17,423.728L466.322,423.728L467.317,420.108L472.17,420.108L474.161,415.843L468.437,415.843L469.433,413.258L474.161,413.258L474.161,405.373L463.211,405.373L463.211,402.271L461.344,402.271C459.751,400.409 458.689,401.409 458.358,402.142L457.487,402.142L457.487,406.167L456.576,406.167L456.576,406.967L457.449,406.967L457.449,415.933L456.398,415.933L456.398,416.64L457.449,416.64L457.449,423.459L456.423,423.459L456.423,424.142L457.449,424.142L457.449,431.652L456.325,431.652L456.325,432.431L457.449,432.431L457.449,438.857L456.438,438.857L456.438,439.999L457.449,439.999L457.449,457.848Z" style="fill:rgb(235,235,235);"/>
        </g>
    </g>
</svg>
