<?xml version="1.0" encoding="UTF-8" standalone="no"?>
<!DOCTYPE svg PUBLIC "-//W3C//DTD SVG 1.1//EN" "http://www.w3.org/Graphics/SVG/1.1/DTD/svg11.dtd">
<svg width="100%" height="100%" viewBox="0 0 888 198" version="1.1" xmlns="http://www.w3.org/2000/svg" xmlns:xlink="http://www.w3.org/1999/xlink" xml:space="preserve" xmlns:serif="http://www.serif.com/" style="fill-rule:evenodd;clip-rule:evenodd;stroke-linejoin:round;stroke-miterlimit:2;">
    <g transform="matrix(1,0,0,1,-561.828,-28.4976)">
        <path id="auckland-filled-in" serif:id="auckland filled in" d="M1449.23,226.413L561.828,226.413L561.828,153.535C564.891,151.166 574.136,148.599 578.375,147.612L585.897,143.465L588.632,143.465L594.649,139.023L599.846,139.023C604.331,135.468 614.114,131.519 618.444,129.988L618.444,128.063L619.401,127.026L619.401,113.402C620.167,111.151 621.088,112.464 621.453,113.402L621.453,127.026L622.547,128.211L622.547,129.988C628.564,130.344 633.259,133.987 634.855,135.764L638.684,135.764L642.786,139.023L646.205,139.023L649.898,142.132L652.496,142.132L658.239,145.242L661.248,145.242L661.248,143.465L663.984,143.465L667.675,140.355L671.642,143.465L673.282,143.465L673.282,135.023L676.839,135.023L676.839,116.512L677.249,116.067L677.659,116.512L677.659,118.437L679.163,118.437L679.437,117.845L680.804,117.696L680.804,111.773L681.487,111.032L682.035,111.624L682.035,117.696L683.129,117.845L683.403,118.437L684.77,118.437L684.77,116.512L685.18,116.067L685.591,116.512L685.591,135.023L689.146,135.023L689.146,143.465L694.89,140.355L694.89,90.743L699.403,90.743L701.318,87.485L703.642,87.485L703.642,80.08L716.634,73.712L724.156,78.747L725.659,85.856L735.642,85.856L735.642,136.653L738.925,136.653L738.925,65.863L752.873,65.863L752.873,123.028L754.788,123.028L754.788,54.607L759.574,54.607L759.574,51.349C755.964,50.52 755.244,47.844 755.335,46.61C758.946,39.62 773.888,44.586 780.907,47.943C783.096,48.772 781.819,51.25 780.907,52.386L780.907,54.607L784.464,54.607L784.464,96.222L786.652,96.222L786.652,90.595L800.6,90.595L800.6,96.222L802.788,96.222L802.788,61.123C803.837,58.112 806.591,51.941 809.216,51.349C811.842,50.757 815.142,57.619 816.464,61.123L819.883,61.123L819.883,64.085L826.036,64.085L826.036,68.084L829.182,68.084L829.182,140.355L831.507,140.355L831.507,116.512L833.969,113.105L836.157,116.66L836.157,140.355L838.208,140.355L838.208,132.506L841.079,132.506L845.867,128.952L869.934,128.952L869.934,124.953C867.418,123.65 868.886,123.127 869.934,123.028L869.934,113.994C873.327,100.606 876.18,108.416 877.183,113.994L877.183,123.028C880.355,123.383 878.505,124.459 877.183,124.953L877.183,128.952L884.294,128.952L884.294,85.856L896.465,85.856L896.465,82.301L922.722,82.301L922.722,85.856L928.603,85.856L928.603,59.642C929.149,52.534 932.477,44.142 934.073,40.834L957.458,40.834C956.363,42.137 955.816,44.339 955.68,45.277L955.816,55.94L960.603,55.94L960.603,74.156L963.064,74.156L963.064,70.009L973.047,70.009C973.485,44.181 974.323,59.248 974.689,70.009L985.082,70.009L985.082,74.156L986.723,74.156L986.723,79.487L991.373,81.857L991.373,142.428L996.569,142.428L996.569,60.975L1000.26,60.975C1005.4,50.431 1009.52,56.582 1010.93,60.975L1015.17,60.975L1015.17,66.603L1022,66.603L1022,127.767L1038.96,127.767C1039.05,116.314 1039.18,93.32 1038.96,92.964C1038.74,92.609 1038.14,83.141 1037.87,78.451C1037.91,77.957 1037.92,76.911 1037.6,76.674C1037.18,76.377 1036.23,75.193 1036.09,74.6C1035.98,74.126 1035.5,73.81 1035.27,73.712L1035.08,73.674C1034.62,73.583 1034.51,72.971 1034.92,72.73L1036.5,71.786L1037.32,71.046L1038.28,71.046L1039.51,60.975C1039.51,60.975 1038.17,60.284 1038.28,60.087C1038.39,59.889 1040.19,59.791 1040.19,59.791L1040.88,55.496L1040.88,29.283C1041.86,27.861 1042.93,28.69 1043.34,29.283L1043.34,55.496L1044.16,59.791C1044.16,59.791 1045.91,59.889 1046.07,60.087C1046.23,60.284 1045.12,60.975 1045.12,60.975L1045.39,63.937L1045.94,71.046L1046.83,71.046L1047.38,71.604L1049.43,72.727C1049.43,72.727 1049.85,73.47 1049.07,73.505C1048.28,73.54 1048.13,74.094 1048.13,74.094L1046.32,76.722L1045.94,78.599C1045.98,79.537 1046.05,82.479 1045.94,86.744C1045.83,91.009 1045.53,92.668 1045.39,92.964L1045.39,127.767L1051.13,127.767L1051.13,118.585L1050.72,118.289L1052.91,114.29C1052.91,112.266 1052.99,108.159 1053.32,107.922C1053.7,107.65 1056.96,88.866 1057.28,86.4C1057.37,88.458 1059.74,101.935 1060.98,108.811C1060.89,110.538 1060.76,114.112 1060.98,114.586C1061.2,115.06 1062.17,117.252 1062.62,118.289L1062.62,140.799L1070.55,140.799L1070.55,86.152L1077.53,86.152L1077.53,79.191L1097.49,79.191L1097.49,86.152L1104.88,86.152L1104.88,140.799C1119.54,138.667 1155.3,136.455 1171.34,135.616C1216.96,106.945 1260.28,123.67 1276.23,135.616C1296.58,137.393 1328.29,140.404 1341.6,141.688L1341.6,138.874L1346.66,138.874L1346.66,138.133L1347.07,137.689L1347.34,137.393L1347.89,137.393L1348.3,136.949L1348.3,136.504L1350.35,136.504L1350.35,137.393L1351.58,137.393L1351.58,138.43L1357.87,138.43L1357.87,137.245L1361.02,137.245L1361.02,139.318L1372.64,139.318L1372.64,140.947L1373.46,140.947L1373.46,146.427L1376.47,146.427L1376.47,138.726L1377.43,138.726L1377.43,137.986L1378.25,137.986L1378.25,137.393L1379.48,137.393L1379.48,136.949L1380.58,136.949L1380.58,136.06L1381.53,136.06L1381.53,135.468L1382.35,135.468L1382.35,136.06L1383.58,136.06L1383.58,137.393L1385.36,137.393L1385.36,138.874L1387,138.874L1387,141.392L1391.11,141.392C1392.2,139.26 1394.39,140.503 1395.34,141.392L1395.34,148.945L1397.26,148.945L1397.26,141.392C1393.16,137.542 1395.62,136.357 1396.3,135.913C1396.85,135.557 1397.99,136.752 1398.49,137.393C1398.9,137.591 1399.72,137.867 1399.72,137.393C1399.72,136.919 1400.82,136.208 1401.36,135.913L1405.19,135.913L1407.65,138.874C1408.96,139.111 1409.84,140.157 1410.11,140.652L1401.91,140.652C1401.8,141.363 1400.4,142.33 1399.72,142.725L1399.72,149.24L1400.68,149.24C1401.88,144.383 1407.2,147.02 1409.7,148.945L1412.85,148.945L1412.85,144.057L1415.72,144.057L1415.72,146.427L1421.46,146.427L1421.46,150.278L1422.69,150.278C1422.04,148.382 1425.61,148.204 1427.48,148.352L1433.91,152.647L1449.23,152.647L1449.23,226.413Z" style="fill:rgb(235,235,235);"/>
    </g>
</svg>
