
<svg width="100%" height="100%" viewBox="0 0 888 126" version="1.1" xmlns="http://www.w3.org/2000/svg" xmlns:xlink="http://www.w3.org/1999/xlink" xml:space="preserve" xmlns:serif="http://www.serif.com/" style="fill-rule:evenodd;clip-rule:evenodd;stroke-linejoin:round;stroke-miterlimit:2;">
    <g transform="matrix(1,0,0,1,-562.232,-101.375)">
        <g transform="matrix(1.0282,0,0,1.0697,70.1664,-263.347)">
            <path id="auckland-filled-in" serif:id="auckland filled in" d="M478.57,457.848L1341.63,457.848L1341.63,457.018L1326.73,457.018L1320.48,453.003C1318.66,452.865 1315.19,453.03 1315.83,454.803L1314.63,454.803L1314.63,451.203L1309.04,451.203L1309.04,448.988L1306.25,448.988L1306.25,453.557L1303.19,453.557C1300.75,451.757 1295.58,449.293 1294.41,453.833L1293.48,453.833L1293.48,447.742C1294.15,447.373 1295.5,446.468 1295.61,445.804L1303.59,445.804C1303.32,445.342 1302.47,444.364 1301.19,444.142L1298.8,441.374L1295.08,441.374C1294.55,441.65 1293.48,442.314 1293.48,442.757C1293.48,443.2 1292.68,442.942 1292.28,442.757C1291.8,442.158 1290.69,441.041 1290.15,441.374C1289.49,441.789 1287.1,442.896 1291.09,446.496L1291.09,453.557L1289.22,453.557L1289.22,446.496C1288.29,445.665 1286.17,444.503 1285.1,446.496L1281.11,446.496L1281.11,444.142L1279.52,444.142L1279.52,442.757L1277.79,442.757L1277.79,441.512L1276.59,441.512L1276.59,440.958L1275.79,440.958L1275.79,441.512L1274.86,441.512L1274.86,442.342L1273.8,442.342L1273.8,442.757L1272.6,442.757L1272.6,443.312L1271.8,443.312L1271.8,444.004L1270.87,444.004L1270.87,451.203L1267.94,451.203L1267.94,446.08L1267.15,446.08L1267.15,444.557L1255.84,444.557L1255.84,442.619L1252.78,442.619L1252.78,443.727L1246.66,443.727L1246.66,442.757L1245.47,442.757L1245.47,441.927L1243.47,441.927L1243.47,442.342L1243.07,442.757L1242.54,442.757L1242.27,443.035L1241.88,443.45L1241.88,444.142L1236.95,444.142L1236.95,446.772C1224.01,445.573 1193.17,442.757 1173.38,441.097C1157.86,429.928 1115.74,414.293 1071.37,441.097C1055.76,441.881 1020.98,443.948 1006.73,445.942L1006.73,394.855L999.544,394.855L999.544,388.348L980.125,388.348L980.125,394.855L973.342,394.855L973.342,445.942L965.628,445.942L965.628,424.898C965.184,423.929 964.244,421.88 964.032,421.437C963.819,420.994 963.943,417.653 964.032,416.037C962.822,409.61 960.52,397.011 960.43,395.087C960.125,397.392 956.95,414.952 956.583,415.207C956.264,415.428 956.184,419.268 956.184,421.16L954.056,424.898L954.456,425.175L954.456,433.759L948.869,433.759L948.869,401.224C949.002,400.947 949.295,399.396 949.401,395.409C949.507,391.422 949.445,388.671 949.401,387.794L949.773,386.04L951.537,383.583C951.537,383.583 951.675,383.065 952.443,383.032C953.211,382.999 952.798,382.305 952.798,382.305L950.808,381.255L950.265,380.733L949.401,380.733L948.869,374.088L948.603,371.319C948.603,371.319 949.689,370.673 949.534,370.488C949.379,370.304 947.673,370.211 947.673,370.211L946.874,366.197L946.874,341.691C946.475,341.138 945.438,340.362 944.48,341.691L944.48,366.197L943.815,370.211C943.815,370.211 942.064,370.304 941.953,370.488C941.842,370.673 943.15,371.319 943.15,371.319L941.953,380.733L941.022,380.733L940.224,381.426L938.683,382.308C938.29,382.533 938.393,383.105 938.841,383.19L939.027,383.225C939.249,383.318 939.718,383.613 939.825,384.056C939.958,384.61 940.889,385.718 941.288,385.994C941.607,386.216 941.598,387.194 941.554,387.656C941.819,392.04 942.405,400.891 942.618,401.224C942.831,401.556 942.706,423.052 942.618,433.759L926.126,433.759L926.126,376.58L919.475,376.58L919.475,371.319L915.352,371.319C913.978,367.212 909.979,361.462 904.978,371.319L901.387,371.319L901.387,447.465L896.333,447.465L896.333,390.84L891.811,388.625L891.811,383.641L890.215,383.641L890.215,379.764L880.106,379.764C879.751,369.704 878.936,355.619 878.51,379.764L868.801,379.764L868.801,383.641L866.407,383.641L866.407,366.612L861.752,366.612L861.619,356.644C861.752,355.767 862.284,353.709 863.348,352.49L840.605,352.49C839.053,355.582 835.816,363.428 835.285,370.073L835.285,394.578L829.565,394.578L829.565,391.255L804.028,391.255L804.028,394.578L792.191,394.578L792.191,434.866L785.275,434.866L785.275,431.128C786.561,430.667 788.361,429.661 785.275,429.328L785.275,420.883C784.3,415.668 781.525,408.368 778.226,420.883L778.226,429.328C777.206,429.421 775.778,429.91 778.226,431.128L778.226,434.866L754.818,434.866L750.162,438.189L747.37,438.189L747.37,445.527L745.374,445.527L745.374,423.375L743.246,420.052L740.852,423.237L740.852,445.527L738.591,445.527L738.591,377.965L735.532,377.965L735.532,374.226L729.547,374.226L729.547,371.457L726.222,371.457C724.936,368.181 721.726,361.766 719.172,362.32C716.619,362.874 713.941,368.642 712.921,371.457L712.921,404.269L710.793,404.269L710.793,399.009L697.227,399.009L697.227,404.269L695.099,404.269L695.099,365.366L691.64,365.366L691.64,363.289C692.527,362.228 693.769,359.911 691.64,359.136C684.814,355.998 670.281,351.355 666.769,357.89C666.68,359.043 667.381,361.545 670.892,362.32L670.892,365.366L666.237,365.366L666.237,429.328L664.375,429.328L664.375,375.888L650.809,375.888L650.809,442.066L647.617,442.066L647.617,394.578L637.908,394.578L636.445,387.933L629.129,383.226L616.494,389.179L616.494,396.101L614.234,396.101L612.371,399.147L607.982,399.147L607.982,445.527L602.396,448.434L602.396,440.542L598.938,440.542L598.938,423.237L598.539,422.821L598.14,423.237L598.14,425.037L596.81,425.037L596.543,424.483L595.48,424.344L595.48,418.668L594.947,418.114L594.283,418.806L594.283,424.344L592.953,424.483L592.687,425.037L591.224,425.037L591.224,423.237L590.825,422.821L590.426,423.237L590.426,440.542L586.967,440.542L586.967,448.434L585.372,448.434L581.514,445.527L577.923,448.434L575.263,448.434L575.263,450.095L572.337,450.095L566.751,447.188L564.224,447.188L560.632,444.281L557.307,444.281L553.318,441.235L549.593,441.235C548.042,439.574 543.475,436.168 537.623,435.835L537.623,434.174L536.559,433.066L536.559,420.329C536.204,419.453 535.309,418.225 534.564,420.329L534.564,433.066L533.633,434.036L533.633,435.835C529.421,437.267 519.907,440.958 515.545,444.281L510.491,444.281L504.638,448.434L501.978,448.434L494.663,452.31C490.54,453.234 481.549,455.633 478.57,457.848Z" style="fill:rgb(235,235,235);"/>
        </g>
    </g>
</svg>
