<?xml version="1.0" encoding="UTF-8" standalone="no"?>
<!DOCTYPE svg PUBLIC "-//W3C//DTD SVG 1.1//EN" "http://www.w3.org/Graphics/SVG/1.1/DTD/svg11.dtd">
<svg width="100%" height="100%" viewBox="0 0 887 171" version="1.1" xmlns="http://www.w3.org/2000/svg" xmlns:xlink="http://www.w3.org/1999/xlink" xml:space="preserve" xmlns:serif="http://www.serif.com/" style="fill-rule:evenodd;clip-rule:evenodd;stroke-linejoin:round;stroke-miterlimit:2;">
    <g transform="matrix(1,0,0,1,-993.157,-637.295)">
        <path id="dc-fill-in" serif:id="dc fill in" d="M993.157,807.535L993.157,752.365L1014.44,752.365L1014.44,728.558L1015.75,726.916L1015.75,715.559L1017.07,713.917L1017.07,700.919L1018.51,700.919L1018.51,688.057L1019.96,686.552L1019.96,673.964L1021.8,677.385L1021.8,681.763L1032.71,681.763L1032.71,677.385L1034.42,673.964L1034.42,700.919L1040.87,700.919L1043.36,697.908L1046.39,700.919L1051.91,700.919L1051.91,677.385L1053.62,673.964L1053.62,681.763L1064.66,681.763L1064.66,677.385L1066.51,673.964L1066.51,677.385L1068.08,679.574L1068.08,686.552L1069.53,688.057L1069.53,700.919L1070.97,700.919L1070.97,713.917L1072.29,715.559L1072.29,726.916L1073.61,728.558L1073.61,752.365L1075.58,752.365L1075.58,751.408L1076.37,751.408L1076.37,750.723L1077.29,750.723L1077.29,750.04L1077.81,750.04L1077.81,749.355L1078.47,749.355L1078.47,732.936L1077.68,732.936L1077.68,732.389L1078.47,732.389L1078.47,729.926L1077.29,729.379L1084.78,729.379L1084.78,721.99L1133.17,721.99L1133.17,728.558L1139.48,728.558L1139.48,726.779C1138.78,726.368 1137.8,725.575 1139.48,725.684L1142.9,721.032L1152.89,721.032L1152.89,715.149L1154.87,715.149C1154.95,715.468 1154.89,716.106 1153.94,716.106L1153.94,722.264L1156.31,722.264L1156.31,719.938L1156.97,719.938L1156.97,722.264L1162.49,722.264L1162.49,719.938L1163.28,719.938L1163.28,722.264L1169.46,722.264L1169.46,719.938L1170.38,719.938L1170.38,722.264L1172.88,722.264L1172.88,720.758L1171.83,720.211L1174.06,720.211L1174.06,719.117L1175.38,719.117L1175.38,715.559L1178.14,715.559L1180.77,712.138L1180.77,709.539L1184.19,709.539L1184.19,708.307C1186.03,707.532 1190.45,706.447 1193.39,708.307L1193.39,709.539L1198.91,709.539L1198.91,712.138L1202.2,715.559L1204.31,715.559L1204.31,719.117L1205.88,719.117L1205.88,720.211L1207.86,720.211L1206.8,720.758L1206.8,722.264L1209.56,722.264L1209.56,719.938L1210.62,719.938L1210.62,722.264L1215.35,722.264L1215.35,719.938L1216.53,719.938L1216.53,722.264L1221.53,722.264L1221.53,719.938L1222.98,719.938L1222.98,722.264L1224.55,722.264L1224.55,716.106C1224.12,716.061 1223.32,715.805 1223.63,715.149L1226,715.149L1226,721.032L1236.39,721.032L1239.94,725.958C1240.42,726.186 1241.02,726.751 1239.54,727.189L1239.54,753.46L1242.31,753.46L1242.31,734.167L1261.9,734.167L1261.9,730.063L1269.13,730.063L1269.13,729.105L1271.63,729.105L1271.63,719.938L1271.76,719.938L1271.76,720.211C1272.2,720.074 1273.1,719.883 1273.2,720.211C1273.31,720.54 1274.21,720.439 1274.65,720.348L1274.65,721.99C1274.3,722.081 1273.52,722.181 1273.2,721.853C1272.89,721.525 1272.11,721.808 1271.76,721.99L1271.76,729.105L1275.18,729.105L1275.18,730.063L1283.07,730.063L1283.07,733.894L1303.71,733.894L1303.71,753.46L1308.84,753.46L1308.84,731.568L1305.95,731.568L1305.95,729.105L1307.26,729.105L1307.26,728.01L1309.89,728.01L1311.34,647.83L1315.02,637.295L1318.83,647.83L1319.75,721.032C1325.54,713.552 1341.13,703.081 1357.23,721.032L1358.8,721.032L1358.8,722.127L1357.62,722.127L1358.94,723.495L1361.83,723.495L1361.83,725L1361.17,725L1361.17,728.01L1370.38,728.01L1370.38,728.968L1371.43,728.968L1371.43,731.568L1369.59,731.568L1369.59,753.46L1374.19,753.46L1374.19,732.252L1375.63,732.252L1375.63,723.495L1373.66,723.495L1378.13,720.074L1378.13,714.465L1378.4,714.465L1378.4,720.074L1381.95,723.495L1380.63,723.495L1380.63,731.02L1399.17,731.02L1399.17,724.179L1400.36,724.179L1400.36,718.98L1398.78,718.98L1403.64,715.149L1403.64,709.949L1404.56,708.171L1405.48,709.949L1405.48,715.149L1410.22,718.569L1408.77,718.569L1408.77,728.968L1411.4,723.495L1414.82,728.968L1414.82,704.203L1417.05,704.203C1417.58,703.746 1418.74,702.834 1419.16,702.834L1419.16,696.404L1419.29,696.404L1419.29,697.224C1419.51,697.361 1420.13,697.553 1420.87,697.224C1421.6,696.896 1422.23,697.27 1422.44,697.498L1422.44,699.277C1422.18,699.094 1421.5,698.784 1420.87,699.003C1420.24,699.222 1419.55,699.277 1419.29,699.277L1419.29,702.834C1420.08,703.108 1421.65,703.765 1421.65,704.203L1423.37,704.203L1423.37,731.02L1444.27,731.02L1444.27,723.495L1443.09,723.495L1446.38,720.074L1446.38,714.465L1446.64,714.191L1446.64,720.074L1449.92,723.495L1448.48,723.495L1448.48,731.02L1449.92,734.852L1451.11,732.936L1483.85,732.936L1483.85,722.264C1483.02,722.492 1481.85,722.373 1483.85,720.074L1483.85,718.843L1485.69,718.843L1486.09,718.159L1486.09,713.644C1485.21,713.917 1483.98,713.945 1486.09,711.865L1487.27,711.865L1487.27,709.949L1488.71,709.265L1488.71,704.203C1489.33,702.561 1491.63,699.167 1495.95,698.73L1495.95,696.54L1497.13,695.993L1497.13,691.067L1496.34,691.067L1496.6,690.383L1498.97,688.878L1498.97,680.121L1499.5,679.437L1500.02,680.121L1500.02,688.878L1502.13,690.383L1502.52,691.067L1501.86,691.067L1501.86,695.993L1502.91,696.54L1502.91,698.73C1504.49,698.958 1507.91,700.371 1508.96,704.203L1508.96,709.265L1510.15,709.949L1510.15,711.865L1511.73,711.865C1512.65,712.686 1513.93,714.191 1511.73,713.644L1511.73,718.159L1512.65,718.843L1514.62,718.843L1514.62,720.074C1515.28,720.987 1516.2,722.619 1514.62,721.853L1514.62,732.936L1548.15,732.936L1550.38,735.125L1555.12,735.125L1555.91,732.936L1580.23,732.936L1580.23,728.147L1578.79,728.147L1578.79,725.958L1595.88,721.032L1612.71,725.958L1612.71,728.147L1611.26,728.147L1611.26,732.936L1638.22,732.936L1639.53,735.125L1642.82,735.125L1642.82,753.187L1645.58,753.187L1645.58,735.125L1647.29,735.125L1649.39,732.936L1658.07,732.936L1659.26,734.031L1659.26,735.125L1689.89,735.125L1689.89,731.705L1688.05,730.473L1689.5,729.652L1689.5,721.716L1692.39,721.716L1693.97,723.632L1745.78,723.632L1747.22,722.4L1749.46,722.4L1749.46,735.125L1776.81,735.125L1779.57,732.525L1789.17,732.525L1790.61,733.483L1790.61,735.125L1792.85,735.125L1792.85,753.323L1794.95,753.323L1794.95,742.924L1797.71,742.924L1797.71,683.679L1799.55,683.679L1799.55,671.912L1800.87,671.912L1800.87,666.849L1801.79,666.849L1801.79,662.881L1802.05,662.06L1802.32,662.881L1802.32,666.849L1803.37,666.849L1803.37,671.912L1804.42,671.912L1804.42,683.679L1806.26,683.679L1806.26,716.38L1817.04,716.38L1817.04,711.181L1820.46,706.392L1820.46,703.108C1821.03,701.512 1823.04,698.045 1826.51,696.951L1828.88,696.951L1828.88,690.383L1829.93,689.699L1829.93,686.278L1830.59,685.184L1831.24,686.278L1831.24,689.699L1832.29,690.383L1832.29,696.951L1834.27,696.951C1835.89,696.996 1839.37,698.292 1840.32,703.108L1840.32,706.392L1843.47,711.181L1843.47,716.38L1853.99,716.38L1853.99,720.622L1854.91,722.4L1854.91,742.924L1857.67,742.924L1857.67,753.323L1880.16,753.323L1880.16,807.535L993.157,807.535Z" style="fill:rgb(235,235,235);"/>
    </g>
</svg>
