<?xml version="1.0" encoding="UTF-8" standalone="no"?>
<!DOCTYPE svg PUBLIC "-//W3C//DTD SVG 1.1//EN" "http://www.w3.org/Graphics/SVG/1.1/DTD/svg11.dtd">
<svg width="100%" height="100%" viewBox="0 0 887 195" version="1.1" xmlns="http://www.w3.org/2000/svg" xmlns:xlink="http://www.w3.org/1999/xlink" xml:space="preserve" xmlns:serif="http://www.serif.com/" style="fill-rule:evenodd;clip-rule:evenodd;stroke-linejoin:round;stroke-miterlimit:2;">
    <g transform="matrix(1,0,0,1,-548.43,-669.858)">
        <path id="dc-fill-in" serif:id="dc fill in" d="M1435.43,864.511L548.43,864.511L548.43,784.929L569.709,784.929L569.709,761.121L571.023,759.479L571.023,748.123L572.338,746.481L572.338,733.482L573.785,733.482L573.785,720.621L575.231,719.116L575.231,706.528L577.072,709.948L577.072,714.327L587.985,714.327L587.985,709.948L589.695,706.528L589.695,733.482L596.138,733.482L598.636,730.472L601.66,733.482L607.183,733.482L607.183,709.948L608.892,706.528L608.892,714.327L619.937,714.327L619.937,709.948L621.778,706.528L621.778,709.948L623.356,712.138L623.356,719.116L624.802,720.621L624.802,733.482L626.249,733.482L626.249,746.481L627.564,748.123L627.564,759.479L628.878,761.121L628.878,784.929L630.851,784.929L630.851,783.971L631.64,783.971L631.64,783.287L632.56,783.287L632.56,782.603L633.086,782.603L633.086,781.919L633.744,781.919L633.744,765.5L632.955,765.5L632.955,764.952L633.744,764.952L633.744,762.49L632.56,761.942L640.055,761.942L640.055,754.554L688.443,754.554L688.443,761.121L694.754,761.121L694.754,759.343C694.053,758.932 693.071,758.138 694.754,758.248L698.173,753.596L708.166,753.596L708.166,747.712L710.138,747.712C710.226,748.032 710.164,748.67 709.217,748.67L709.217,754.827L711.585,754.827L711.585,752.501L712.242,752.501L712.242,754.827L717.765,754.827L717.765,752.501L718.554,752.501L718.554,754.827L724.734,754.827L724.734,752.501L725.654,752.501L725.654,754.827L728.152,754.827L728.152,753.322L727.1,752.775L729.336,752.775L729.336,751.68L730.65,751.68L730.65,748.123L733.412,748.123L736.042,744.702L736.042,742.103L739.46,742.103L739.46,740.871C741.301,740.096 745.719,739.01 748.665,740.871L748.665,742.103L754.188,742.103L754.188,744.702L757.475,748.123L759.578,748.123L759.578,751.68L761.156,751.68L761.156,752.775L763.128,752.775L762.077,753.322L762.077,754.827L764.837,754.827L764.837,752.501L765.889,752.501L765.889,754.827L770.623,754.827L770.623,752.501L771.806,752.501L771.806,754.827L776.803,754.827L776.803,752.501L778.249,752.501L778.249,754.827L779.827,754.827L779.827,748.67C779.39,748.624 778.592,748.369 778.907,747.712L781.274,747.712L781.274,753.596L791.661,753.596L795.212,758.522C795.694,758.75 796.29,759.315 794.817,759.753L794.817,786.024L797.578,786.024L797.578,766.731L817.17,766.731L817.17,762.626L824.402,762.626L824.402,761.669L826.9,761.669L826.9,752.501L827.032,752.501L827.032,752.775C827.47,752.638 828.373,752.447 828.478,752.775C828.583,753.103 829.487,753.003 829.924,752.912L829.924,754.554C829.574,754.645 828.794,754.745 828.478,754.417C828.162,754.088 827.382,754.371 827.032,754.554L827.032,761.669L830.451,761.669L830.451,762.626L838.34,762.626L838.34,766.457L858.983,766.457L858.983,786.024L864.112,786.024L864.112,764.131L861.219,764.131L861.219,761.669L862.533,761.669L862.533,760.574L865.163,760.574L866.61,680.394L870.292,669.858L874.104,680.394L875.025,753.596C880.811,746.116 896.405,735.644 912.5,753.596L914.077,753.596L914.077,754.69L912.894,754.69L914.209,756.059L917.102,756.059L917.102,757.564L916.444,757.564L916.444,760.574L925.648,760.574L925.648,761.532L926.701,761.532L926.701,764.131L924.86,764.131L924.86,786.024L929.461,786.024L929.461,764.816L930.908,764.816L930.908,756.059L928.935,756.059L933.406,752.638L933.406,747.028L933.669,747.028L933.669,752.638L937.22,756.059L935.904,756.059L935.904,763.584L954.444,763.584L954.444,756.743L955.628,756.743L955.628,751.543L954.05,751.543L958.915,747.712L958.915,742.513L959.835,740.734L960.756,742.513L960.756,747.712L965.49,751.133L964.043,751.133L964.043,761.532L966.672,756.059L970.091,761.532L970.091,736.766L972.327,736.766C972.852,736.31 974.01,735.398 974.43,735.398L974.43,728.967L974.562,728.967L974.562,729.788C974.781,729.925 975.403,730.117 976.139,729.788C976.877,729.46 977.498,729.834 977.718,730.062L977.718,731.841C977.455,731.658 976.771,731.348 976.139,731.567C975.509,731.786 974.825,731.841 974.562,731.841L974.562,735.398C975.351,735.672 976.929,736.328 976.929,736.766L978.639,736.766L978.639,763.584L999.545,763.584L999.545,756.059L998.361,756.059L1001.65,752.638L1001.65,747.028L1001.91,746.755L1001.91,752.638L1005.2,756.059L1003.75,756.059L1003.75,763.584L1005.2,767.415L1006.38,765.5L1039.12,765.5L1039.12,754.827C1038.29,755.055 1037.12,754.937 1039.12,752.638L1039.12,751.407L1040.96,751.407L1041.36,750.723L1041.36,746.207C1040.48,746.481 1039.26,746.508 1041.36,744.429L1042.54,744.429L1042.54,742.513L1043.99,741.829L1043.99,736.766C1044.6,735.124 1046.91,731.731 1051.22,731.293L1051.22,729.104L1052.4,728.557L1052.4,723.631L1051.62,723.631L1051.88,722.947L1054.24,721.442L1054.24,712.685L1054.77,712.001L1055.3,712.685L1055.3,721.442L1057.4,722.947L1057.8,723.631L1057.14,723.631L1057.14,728.557L1058.19,729.104L1058.19,731.293C1059.77,731.521 1063.19,732.935 1064.24,736.766L1064.24,741.829L1065.42,742.513L1065.42,744.429L1067,744.429C1067.92,745.25 1069.21,746.755 1067,746.207L1067,750.723L1067.92,751.407L1069.89,751.407L1069.89,752.638C1070.55,753.55 1071.47,755.183 1069.89,754.417L1069.89,765.5L1103.42,765.5L1105.66,767.689L1110.39,767.689L1111.18,765.5L1135.51,765.5L1135.51,760.711L1134.06,760.711L1134.06,758.522L1151.15,753.596L1167.98,758.522L1167.98,760.711L1166.54,760.711L1166.54,765.5L1193.49,765.5L1194.81,767.689L1198.09,767.689L1198.09,785.751L1200.85,785.751L1200.85,767.689L1202.56,767.689L1204.67,765.5L1213.35,765.5L1214.53,766.594L1214.53,767.689L1245.17,767.689L1245.17,764.268L1243.33,763.037L1244.77,762.216L1244.77,754.28L1247.66,754.28L1249.24,756.196L1301.05,756.196L1302.5,754.964L1304.73,754.964L1304.73,767.689L1332.08,767.689L1334.84,765.089L1344.44,765.089L1345.89,766.047L1345.89,767.689L1348.12,767.689L1348.12,785.887L1350.23,785.887L1350.23,775.488L1352.99,775.488L1352.99,716.242L1354.83,716.242L1354.83,704.475L1356.14,704.475L1356.14,699.413L1357.06,699.413L1357.06,695.445L1357.33,694.624L1357.59,695.445L1357.59,699.413L1358.64,699.413L1358.64,704.475L1359.69,704.475L1359.69,716.242L1361.53,716.242L1361.53,748.944L1372.32,748.944L1372.32,743.744L1375.73,738.955L1375.73,735.672C1376.3,734.075 1378.31,730.609 1381.78,729.514L1384.15,729.514L1384.15,722.947L1385.2,722.263L1385.2,718.842L1385.86,717.747L1386.52,718.842L1386.52,722.263L1387.57,722.947L1387.57,729.514L1389.54,729.514C1391.16,729.56 1394.64,730.855 1395.59,735.672L1395.59,738.955L1398.75,743.744L1398.75,748.944L1409.26,748.944L1409.26,753.185L1410.18,754.964L1410.18,775.488L1412.95,775.488L1412.95,785.887L1435.43,785.887L1435.43,864.511Z" style="fill:rgb(235,235,235);"/>
    </g>
</svg>
