<?xml version="1.0" encoding="UTF-8" standalone="no"?>
<!DOCTYPE svg PUBLIC "-//W3C//DTD SVG 1.1//EN" "http://www.w3.org/Graphics/SVG/1.1/DTD/svg11.dtd">
<svg width="100%" height="100%" viewBox="0 0 888 119" version="1.1" xmlns="http://www.w3.org/2000/svg" xmlns:xlink="http://www.w3.org/1999/xlink" xml:space="preserve" xmlns:serif="http://www.serif.com/" style="fill-rule:evenodd;clip-rule:evenodd;stroke-linejoin:round;stroke-miterlimit:2;">
    <g transform="matrix(1,0,0,1,-562.232,-460.683)">
        <g transform="matrix(4.09315,0,0,1.16489,-1529.21,-231.117)">
            <path id="dc-fill-in" serif:id="dc fill in" d="M510.963,692.655L510.963,695.322L727.765,695.322L727.765,693.478L722.269,693.478L722.269,684.551L721.594,684.551L721.594,666.932L721.369,665.406L721.369,661.764L718.798,661.764L718.798,657.301L718.027,653.19L718.027,650.371C717.795,646.236 716.945,645.124 716.548,645.085L716.066,645.085L716.066,639.447L715.809,638.86L715.809,635.924L715.648,634.984L715.488,635.924L715.488,638.86L715.231,639.447L715.231,645.085L714.652,645.085C713.804,646.025 713.313,649.001 713.174,650.371L713.174,653.19L712.338,657.301L712.338,661.764L709.703,661.764L709.703,633.692L709.253,633.692L709.253,623.591L708.996,623.591L708.996,619.245L708.739,619.245L708.739,615.838L708.674,615.134L708.61,615.838L708.61,619.245L708.385,619.245L708.385,623.591L708.064,623.591L708.064,633.692L707.614,633.692L707.614,684.551L706.939,684.551L706.939,693.478L706.425,693.478L706.425,677.856L705.878,677.856L705.878,676.447L705.525,675.624L703.179,675.624L702.504,677.856L695.819,677.856L695.819,666.932L695.273,666.932L694.919,667.99L682.256,667.99L681.871,666.345L681.164,666.345L681.164,673.158L680.81,673.863L681.26,674.92L681.26,677.856L673.772,677.856L673.772,676.916L673.482,675.977L671.361,675.977L670.847,677.856L670.429,677.856L670.429,693.361L669.754,693.361L669.754,677.856L668.951,677.856L668.63,675.977L662.041,675.977L662.041,671.866L662.395,671.866L662.395,669.986L658.281,665.758L654.103,669.986L654.103,671.866L654.456,671.866L654.456,675.977L648.511,675.977L648.318,677.856L647.161,677.856L646.615,675.977L638.419,675.977L638.419,666.463C638.805,667.12 638.58,665.719 638.419,664.936L638.419,663.879L637.937,663.879L637.712,663.291L637.712,659.415C638.252,659.885 637.937,658.593 637.712,657.888L637.327,657.888L637.327,656.244L637.037,655.657L637.037,651.311C636.78,648.022 635.944,646.808 635.559,646.612L635.559,644.733L635.302,644.263L635.302,640.035L635.462,640.035L635.366,639.447L634.852,638.155L634.852,630.638L634.723,630.051L634.595,630.638L634.595,638.155L634.016,639.447L633.952,640.035L634.145,640.035L634.145,644.263L633.856,644.733L633.856,646.612C632.801,646.988 632.238,649.901 632.088,651.311L632.088,655.657L631.734,656.244L631.734,657.888L631.445,657.888C630.931,659.674 631.231,659.65 631.445,659.415L631.445,663.291L631.349,663.879L630.899,663.879L630.899,664.936C630.41,666.909 630.695,667.011 630.899,666.815L630.899,675.977L622.896,675.977L622.607,677.621L622.253,674.332L622.253,667.872L622.607,667.872L621.803,664.936L621.803,659.885L621.739,660.12L621.739,664.936L620.936,667.872L621.225,667.872L621.225,674.332L616.115,674.332L616.115,651.311L615.697,651.311C615.697,650.935 615.311,650.371 615.119,650.136L615.119,647.082C615.183,647.082 615.35,647.035 615.504,646.847C615.658,646.659 615.826,646.925 615.89,647.082L615.89,645.555C615.836,645.359 615.684,645.038 615.504,645.32C615.324,645.602 615.172,645.438 615.119,645.32L615.119,644.616L615.086,644.616L615.086,650.136C614.984,650.136 614.701,650.919 614.572,651.311L614.026,651.311L614.026,672.57L613.19,667.872L612.548,672.57L612.548,663.644L612.901,663.644L611.744,660.707L611.744,656.244L611.519,654.717L611.294,656.244L611.294,660.707L610.105,663.996L610.491,663.996L610.491,668.459L610.201,668.459L610.201,674.332L605.67,674.332L605.67,667.872L605.991,667.872L605.123,664.936L605.123,660.12L605.059,660.12L605.059,664.936L603.966,667.872L604.448,667.872L604.448,675.389L604.095,675.389L604.095,693.596L602.97,693.596L602.97,674.802L603.42,674.802L603.42,672.57L603.163,672.57L603.163,671.748L600.913,671.748L600.913,669.164L601.074,669.164L601.074,667.872L600.367,667.872L600.046,666.698L600.335,666.698L600.335,665.758L599.949,665.758C596.015,650.347 592.204,659.337 590.79,665.758L590.564,602.918L589.633,593.874L588.733,602.918L588.379,671.748L587.736,671.748L587.736,672.688L587.415,672.688L587.415,674.802L588.122,674.802L588.122,693.596L586.869,693.596L586.869,676.799L581.823,676.799L581.823,673.51L579.895,673.51L579.895,672.688L579.059,672.688L579.059,666.58C579.145,666.424 579.335,666.181 579.412,666.463C579.49,666.745 579.68,666.658 579.766,666.58L579.766,665.171C579.659,665.249 579.438,665.335 579.412,665.053C579.387,664.771 579.166,664.936 579.059,665.053L579.059,664.818L579.027,664.818L579.027,672.688L578.416,672.688L578.416,673.51L576.648,673.51L576.648,677.034L571.86,677.034L571.86,693.596L571.185,693.596L571.185,671.043C571.545,670.668 571.399,670.182 571.281,669.986L570.413,665.758L567.875,665.758L567.875,660.707L567.296,660.707C567.219,661.271 567.414,661.49 567.521,661.529L567.521,666.815L567.135,666.815L567.135,664.818L566.782,664.818L566.782,666.815L565.561,666.815L565.561,664.818L565.271,664.818L565.271,666.815L564.114,666.815L564.114,664.818L563.857,664.818L563.857,666.815L563.182,666.815L563.182,665.523L563.439,665.053L562.957,665.053L562.957,664.114L562.572,664.114L562.572,661.06L562.058,661.06L561.254,658.123L561.254,655.891L559.904,655.891L559.904,654.834C559.184,653.237 558.104,654.169 557.654,654.834L557.654,655.891L556.819,655.891L556.819,658.123L556.176,661.06L555.501,661.06L555.501,664.114L555.18,664.114L555.18,665.053L554.633,665.053L554.891,665.523L554.891,666.815L554.28,666.815L554.28,664.818L554.055,664.818L554.055,666.815L552.545,666.815L552.545,664.818L552.352,664.818L552.352,666.815L551.002,666.815L551.002,664.818L550.841,664.818L550.841,666.815L550.262,666.815L550.262,661.529C550.494,661.529 550.509,660.981 550.488,660.707L550.005,660.707L550.005,665.758L547.563,665.758L546.727,669.751C546.316,669.657 546.556,670.339 546.727,670.691L546.727,672.218L545.185,672.218L545.185,666.58L533.358,666.58L533.358,672.923L531.526,672.923L531.815,673.393L531.815,675.507L531.622,675.507L531.622,675.977L531.815,675.977L531.815,690.072L531.654,690.072L531.654,690.659L531.526,690.659L531.526,691.246L531.301,691.246L531.301,691.834L531.108,691.834L531.108,692.655L530.626,692.655L530.626,672.218L530.304,670.809L530.304,661.06L529.983,659.65L529.983,648.492L529.63,648.492L529.63,637.451L529.276,636.159L529.276,630.168L528.89,628.289L528.89,625.352L528.44,628.289L528.44,632.048L525.741,632.048L525.741,625.352L525.323,628.289L525.323,648.492L523.973,648.492L523.234,645.907L522.623,648.492L521.049,648.492L521.049,625.352L520.631,628.289L520.631,632.048L517.963,632.048L517.963,628.289L517.513,625.352L517.513,636.159L517.16,637.451L517.16,648.492L516.806,648.492L516.806,659.65L516.485,661.06L516.485,670.809L516.163,672.218L516.163,692.655L510.963,692.655Z" style="fill:rgb(235,235,235);"/>
        </g>
    </g>
</svg>
