<?xml version="1.0" encoding="UTF-8" standalone="no"?>
<!DOCTYPE svg PUBLIC "-//W3C//DTD SVG 1.1//EN" "http://www.w3.org/Graphics/SVG/1.1/DTD/svg11.dtd">
<svg width="100%" height="100%" viewBox="0 0 888 195" version="1.1" xmlns="http://www.w3.org/2000/svg" xmlns:xlink="http://www.w3.org/1999/xlink" xml:space="preserve" xmlns:serif="http://www.serif.com/" style="fill-rule:evenodd;clip-rule:evenodd;stroke-linejoin:round;stroke-miterlimit:2;">
    <g transform="matrix(1,0,0,1,-695.602,-392.675)">
        <g transform="matrix(1,0,0,1,130.572,-47.6196)">
            <path id="sf-fill-in" serif:id="sf fill in" d="M1450.83,562.07L1450.83,634.948L566.632,634.948L566.632,562.07L565.03,562.07L565.03,561.211C583.771,551.087 630.315,521.154 666.563,482.415L666.563,480.552C666.839,479.836 667.557,478.833 668.22,480.552L668.22,482.415L677.199,482.415L677.199,480.552C677.521,479.741 678.415,478.604 679.409,480.552L679.409,482.415C692.809,502.615 723.808,543.417 740.605,545.022C744.335,546.072 755.027,543.532 767.956,524.965L767.956,524.105C768.371,523.341 769.338,522.271 769.891,524.105L773.62,524.105C773.942,523.341 774.726,522.271 775.278,524.105L775.278,527.257C775.692,528.403 777.323,531.526 780.527,534.85L783.705,534.85C788.402,530.075 800.447,523.389 811.056,534.85L812.851,534.85C813.082,534.086 813.653,533.016 814.095,534.85L814.095,535.996L815.752,535.996L815.752,544.306L840.479,544.306L840.479,541.154L843.242,541.154L843.242,528.26L845.453,528.26L845.453,524.965L846.143,524.965L846.143,521.097C846.465,520.141 847.995,517.744 851.531,515.796L851.531,511.641C851.945,511.259 852.994,510.466 853.879,510.352L853.879,506.34C854.201,505.003 854.901,503.131 855.123,506.34L855.123,510.352C855.675,510.59 856.835,511.183 857.056,511.641C857.278,512.099 857.148,514.602 857.056,515.796C858.621,516.56 861.974,518.69 862.857,521.097L862.857,524.965L863.963,524.965L863.963,528.26L866.173,528.26L866.173,541.154L868.522,541.154L868.522,544.306L904.023,544.306L904.023,528.976L913.417,528.976L913.417,561.068L919.495,561.068L919.495,528.976L928.197,528.976L928.197,561.068L932.894,561.068L932.894,528.976L949.747,528.976L949.747,543.876C950.622,543.112 952.372,541.326 952.372,540.294L952.372,536.999L954.029,536.999L954.029,532.844L957.621,532.844L957.621,518.518L960.937,518.518C961.212,515.748 962.318,511.412 964.528,516.225L966.324,516.225L966.324,504.335L968.258,504.335C970.283,502.424 975.275,499.75 979.033,504.335L981.381,504.335L981.381,513.217L985.94,513.217C986.17,512.405 986.797,511.269 987.459,513.217L987.459,516.225C988.196,516.56 989.78,517.314 990.222,517.658C990.664,518.002 991.879,517.801 992.432,517.658L992.432,540.294C993.537,541.106 995.83,542.959 996.162,543.876C996.494,544.793 996.853,544.831 996.991,544.735L996.991,478.547L1001,478.547L1001,473.819L1018.13,473.819L1018.13,478.547L1024.76,478.547L1024.76,495.595L1027.52,495.595L1029.18,493.303L1032.49,493.303L1032.49,479.263C1032.77,478.117 1033.57,476.512 1034.57,479.263L1034.57,493.303L1038.71,493.303L1038.71,479.263C1038.94,478.212 1039.59,476.742 1040.37,479.263L1040.37,493.303L1043.82,493.303L1046.44,495.022L1049.35,495.022L1049.35,544.735L1055.15,505.624L1055.15,477.687C1055.7,477.496 1056.86,476.999 1057.08,476.541C1057.3,476.083 1058.65,462.692 1059.29,456.054L1062.05,476.541L1064.54,477.114L1064.54,505.624L1070.34,555.05L1070.34,533.847L1074.07,533.847L1074.07,517.658L1076.56,517.658L1076.56,514.076C1077.02,513.456 1078,511.813 1078.22,510.208L1083.88,510.208L1083.88,502.759C1084.29,501.469 1085.4,499.664 1086.51,502.759L1086.51,510.208L1091.62,510.208C1092.21,511.498 1093.63,514.076 1094.52,514.076L1094.52,517.658L1097.56,517.658L1097.56,533.847L1102.11,533.847L1102.11,471.097C1102.62,462.692 1104.3,444.765 1106.95,440.295L1116.76,440.295C1118.23,443.447 1121.4,454.02 1122.28,471.097L1122.28,492.157L1139.96,492.157C1140.29,492.921 1140.9,494.564 1140.79,495.022C1140.68,495.481 1142.68,495.213 1143.69,495.022L1143.69,530.265C1144.57,531.316 1146.57,532.787 1147.56,530.265L1147.56,484.277L1158.06,485.137L1168.56,484.277L1168.56,461.212L1170.22,461.212L1170.22,471.097L1184.44,475.825L1184.44,558.489L1188.73,558.489L1188.73,487.716L1190.38,486.57L1190.38,482.988L1199.92,482.988L1199.92,550.323L1203.65,548.174L1203.65,500.61L1204.89,498.317L1206.55,498.317L1206.55,491.154L1211.93,491.154L1211.93,498.317L1214.28,500.61L1214.28,541.297C1215.94,540.151 1219.59,538.546 1220.91,541.297L1220.91,543.303L1223.4,541.297L1223.4,520.81L1224.92,519.377L1224.92,508.919L1231.83,508.919L1231.83,519.377L1232.93,520.81L1232.93,540.294L1235.14,542.013L1236.66,541.297C1237.26,541.536 1238.54,542.013 1238.87,542.013L1241.36,542.013L1242.19,544.449L1244.4,545.308C1244.81,545.356 1245.72,545.538 1246.06,545.881C1246.39,546.225 1246.93,547.266 1247.16,547.744L1248.68,548.174L1250.48,549.606C1251.17,549.511 1252.6,549.262 1252.82,549.033C1253.1,548.747 1253.1,547.314 1253.65,547.744C1254.1,548.088 1254.48,549.129 1254.62,549.606C1254.57,549.845 1254.59,550.323 1255.04,550.323L1256.69,550.323L1258.21,549.606L1259.18,550.323C1259.41,550.848 1260.06,551.927 1260.84,552.042C1261.61,552.156 1262.45,552.09 1262.77,552.042L1267.47,554.477C1267.84,554.525 1268.68,554.707 1269.12,555.05C1269.57,555.394 1272.07,556.244 1273.27,556.626L1275.76,559.205C1276.17,559.73 1277.19,560.867 1277.96,561.211C1278.74,561.555 1285.19,561.354 1288.33,561.211C1291.32,559.157 1297.8,555.05 1299.79,555.05C1302.28,555.05 1306.28,552.042 1307.25,552.042C1308.22,552.042 1311.12,552.472 1312.5,552.042C1313.88,551.612 1315.54,552.042 1316.09,552.042C1316.64,552.042 1326.73,550.609 1327.83,550.896C1328.94,551.182 1329.63,549.893 1329.77,549.033C1329.88,548.346 1329.81,545.69 1329.77,544.449L1335.98,544.449L1335.98,538.718C1336.44,537.62 1337.59,536.082 1338.47,538.718L1338.47,547.171L1342.75,547.171L1342.75,543.303L1368.45,543.303L1369.41,544.449L1384.06,544.449L1384.06,548.03L1393.73,548.03L1396.49,550.036L1400.77,550.036L1401.05,543.876C1400.31,542.586 1400.49,539.721 1403.12,539.864C1404.36,539.864 1406.46,541.01 1404.92,543.303L1404.92,550.036L1422.74,550.036L1427.43,552.615L1430.47,552.615L1430.47,550.466L1433.37,550.323L1433.79,543.303L1435.72,543.303L1435.72,550.896L1445.25,550.896L1445.25,554.907L1452.43,562.07L1450.83,562.07Z" style="fill:rgb(235,235,235);"/>
        </g>
    </g>
</svg>
