<?xml version="1.0" encoding="UTF-8" standalone="no"?>
<!DOCTYPE svg PUBLIC "-//W3C//DTD SVG 1.1//EN" "http://www.w3.org/Graphics/SVG/1.1/DTD/svg11.dtd">
<svg width="100%" height="100%" viewBox="0 0 888 122" version="1.1" xmlns="http://www.w3.org/2000/svg" xmlns:xlink="http://www.w3.org/1999/xlink" xml:space="preserve" xmlns:serif="http://www.serif.com/" style="fill-rule:evenodd;clip-rule:evenodd;stroke-linejoin:round;stroke-miterlimit:2;">
    <g transform="matrix(1,0,0,1,-562.232,-347.498)">
        <g transform="matrix(4.19956,0,0,1.17587,-1583.58,-348.334)">
            <path id="sf-fill-in" serif:id="sf fill in" d="M510.963,694.591L510.963,695.322L722.272,695.322L720.561,689.23L720.561,685.818L718.291,685.818L718.291,679.361L717.831,679.361L717.732,685.331L717.042,685.453L717.042,687.28L716.318,687.28L715.2,685.087L710.956,685.087L710.956,679.361C711.325,677.412 710.825,676.437 710.529,676.437C709.903,676.315 709.86,678.752 710.035,679.848L709.969,685.087L708.95,685.087L708.292,683.382L705.989,683.382L705.989,680.336L702.502,680.336L702.272,679.361L696.154,679.361L696.154,682.651L695.134,682.651L695.134,675.462C694.924,673.22 694.652,674.528 694.542,675.462L694.542,680.336L693.062,680.336C693.073,681.392 693.088,683.65 693.062,684.235C693.029,684.966 692.865,686.062 692.601,685.818C692.338,685.575 689.937,686.793 689.805,686.793C689.674,686.793 689.279,686.428 688.95,686.793C688.621,687.159 687.93,686.793 687.7,686.793C687.47,686.793 686.516,689.352 685.924,689.352C685.45,689.352 683.907,692.844 683.194,694.591C682.448,694.713 680.911,694.883 680.727,694.591C680.543,694.298 680.299,693.332 680.201,692.885L679.608,690.692C679.323,690.367 678.727,689.644 678.622,689.352C678.516,689.059 678.315,688.905 678.227,688.864L677.108,686.793C677.032,686.834 676.832,686.891 676.648,686.793C676.464,686.696 676.308,685.778 676.253,685.331L676.023,684.722L675.661,685.331L675.267,685.331C675.161,685.331 675.157,684.925 675.168,684.722C675.135,684.316 675.043,683.43 674.937,683.138C674.806,682.772 674.806,683.991 674.74,684.235C674.688,684.429 674.345,684.641 674.181,684.722L673.753,683.503L673.392,683.138C673.337,682.732 673.207,681.847 673.128,681.554C673.049,681.262 672.832,681.107 672.734,681.067L672.207,680.336L672.01,678.265L671.418,678.265C671.339,678.265 671.034,677.858 670.892,677.655L670.53,678.265L670.003,676.802L670.003,660.232L669.74,659.014L669.74,650.12L668.096,650.12L668.096,659.014L667.734,660.232L667.734,677.655L667.142,679.361L667.142,677.655C666.826,675.316 665.957,676.681 665.563,677.655L665.563,643.053L665.004,641.104L665.004,635.012L663.721,635.012L663.721,641.104L663.326,641.104L663.03,643.053L663.03,683.503L662.142,685.331L662.142,628.067L659.872,628.067L659.872,631.113L659.477,632.088L659.477,692.276L658.458,692.276L658.458,621.975L655.07,617.955L655.07,609.548L654.675,609.548L654.675,629.164L652.175,629.895L649.675,629.164L649.675,668.274C649.438,670.418 648.962,669.167 648.754,668.274L648.754,638.302C648.513,638.464 648.037,638.691 648.063,638.302C648.09,637.912 647.943,636.515 647.866,635.865L643.656,635.865L643.656,617.955C643.445,603.432 642.691,594.44 642.34,591.76L640.004,591.76C639.373,595.561 638.974,610.807 638.853,617.955L638.853,671.32L637.768,671.32L637.768,657.552L637.044,657.552L637.044,654.506C636.834,654.506 636.496,652.313 636.353,651.216L635.136,651.216L635.136,644.881C634.873,642.249 634.61,643.784 634.511,644.881L634.511,651.216L633.163,651.216C633.11,652.581 632.877,653.978 632.768,654.506L632.768,657.552L632.176,657.552L632.176,671.32L631.288,671.32L631.288,689.352L629.906,647.318L629.906,623.072L629.314,622.585L628.656,605.162C628.503,610.807 628.183,622.195 628.13,622.585C628.077,622.974 627.801,623.397 627.669,623.559L627.669,647.318L626.288,680.579L626.288,638.302L625.597,638.302L624.972,636.84L624.15,636.84L624.15,624.899C623.965,622.755 623.81,624.006 623.755,624.899L623.755,636.84L622.768,636.84L622.768,624.899C622.531,622.56 622.34,623.925 622.275,624.899L622.275,636.84L621.485,636.84L621.091,638.789L620.433,638.789L620.433,624.29L618.854,624.29L618.854,620.27L614.775,620.27L614.775,624.29L613.821,624.29L613.821,680.579C613.788,680.661 613.703,680.628 613.624,679.848C613.545,679.069 612.999,677.493 612.736,676.802L612.736,657.552C612.604,657.674 612.314,657.844 612.209,657.552C612.104,657.26 611.727,656.618 611.551,656.334L611.551,653.775C611.394,652.118 611.244,653.085 611.19,653.775L610.104,653.775L610.104,646.221L609.545,646.221C608.65,642.322 607.461,644.597 606.979,646.221L606.519,646.221L606.519,656.334L606.091,656.334C605.565,652.24 605.301,655.928 605.236,658.283L604.446,658.283L604.446,670.467L603.591,670.467L603.591,674L603.196,674L603.196,676.802C603.196,677.68 602.78,679.199 602.571,679.848L602.571,667.177L598.558,667.177L598.558,694.469L597.44,694.469L597.44,667.177L595.368,667.177L595.368,694.469L593.92,694.469L593.92,667.177L591.684,667.177L591.684,680.214L583.23,680.214L583.23,677.533L582.671,677.533L582.671,666.568L582.145,666.568L582.145,663.766L581.881,663.766L581.881,660.476C581.671,658.429 580.873,656.618 580.5,655.968C580.522,654.953 580.553,652.825 580.5,652.435C580.447,652.045 580.171,651.541 580.039,651.338L580.039,647.927C579.987,645.198 579.82,646.79 579.743,647.927L579.743,651.338C579.533,651.436 579.283,652.11 579.184,652.435L579.184,655.968C578.342,657.625 577.978,659.664 577.901,660.476L577.901,663.766L577.737,663.766L577.737,666.568L577.21,666.568L577.21,677.533L576.552,677.533L576.552,680.214L570.664,680.214L570.664,673.147L570.27,673.147L570.27,672.173C570.165,670.613 570.029,671.523 569.974,672.173L569.546,672.173C567.02,662.426 564.152,668.111 563.033,672.173L562.277,672.173C561.514,669.346 561.125,666.69 561.027,665.715L561.027,663.035C560.895,661.475 560.709,662.385 560.632,663.035L559.744,663.035C559.612,661.475 559.382,662.385 559.283,663.035L559.283,663.766C556.205,679.556 553.659,681.717 552.77,680.823C548.771,679.458 541.389,644.759 538.198,627.58L538.198,625.996C537.962,624.339 537.749,625.306 537.672,625.996L537.672,627.58L535.534,627.58L535.534,625.996C535.376,624.534 535.205,625.387 535.139,625.996L535.139,627.58C526.508,660.525 515.425,685.981 510.963,694.591Z" style="fill:rgb(235,235,235);"/>
        </g>
    </g>
</svg>
